<?xml version="1.0" encoding="UTF-8"?>
<!DOCTYPE svg PUBLIC "-//W3C//DTD SVG 1.1//EN" "http://www.w3.org/Graphics/SVG/1.1/DTD/svg11.dtd">
<svg xmlns="http://www.w3.org/2000/svg" version="1.1" width="300px" height="300px" style="shape-rendering:geometricPrecision; text-rendering:geometricPrecision; image-rendering:optimizeQuality; fill-ru000:evenodd; clip-rule:evenodd" xmlns:xlink="http://www.w3.org/1999/xlink">
<g><path style="opacity:0.005" fill="#000" d="M 161.5,11.5 C 159.017,11.27 158.517,10.6034 160,9.5C 161.03,9.83611 161.53,10.5028 161.5,11.5 Z"/></g>
<g><path style="opacity:0.004" fill="#000" d="M 161.5,11.5 C 162.833,12.1667 162.833,12.1667 161.5,11.5 Z"/></g>
<g><path style="opacity:0.004" fill="#000" d="M 191.5,31.5 C 192.833,32.1667 192.833,32.1667 191.5,31.5 Z"/></g>
<g><path style="opacity:0.004" fill="#000" d="M 194.5,33.5 C 193.833,32.1667 193.833,32.1667 194.5,33.5 Z"/></g>
<g><path style="opacity:0.005" fill="#000" d="M 194.5,33.5 C 200.969,34.3999 207.303,35.8999 213.5,38C 217.709,40.8537 221.042,44.5204 223.5,49C 221.465,49.5986 219.799,49.0986 218.5,47.5C 217.457,44.9438 215.79,42.7772 213.5,41C 208.394,38.4647 203.06,36.6314 197.5,35.5C 195.973,35.573 194.973,34.9063 194.5,33.5 Z"/></g>
<g><path style="opacity:0.004" fill="#000" d="M 158.5,37.5 C 159.833,38.1667 159.833,38.1667 158.5,37.5 Z"/></g>
<g><path style="opacity:0.039" fill="#000" d="M 197.5,35.5 C 203.06,36.6314 208.394,38.4647 213.5,41C 215.79,42.7772 217.457,44.9438 218.5,47.5C 210.98,44.2917 203.98,40.2917 197.5,35.5 Z"/></g>
<g><path style="opacity:0.004" fill="#000" d="M 134.5,41.5 C 135.833,42.1667 135.833,42.1667 134.5,41.5 Z"/></g>
<g><path style="opacity:0.004" fill="#000" d="M 236.5,45.5 C 237.833,46.1667 237.833,46.1667 236.5,45.5 Z"/></g>
<g><path style="opacity:0.004" fill="#000" d="M 239.5,47.5 C 238.833,46.1667 238.833,46.1667 239.5,47.5 Z"/></g>
<g><path style="opacity:0.004" fill="#000" d="M 239.5,47.5 C 240.492,47.3284 241.158,47.6618 241.5,48.5C 240.508,48.6716 239.842,48.3382 239.5,47.5 Z"/></g>
<g><path style="opacity:0.004" fill="#000" d="M 241.5,48.5 C 244.097,48.5332 245.097,49.5332 244.5,51.5C 242.787,51.1207 241.787,50.1207 241.5,48.5 Z"/></g>
<g><path style="opacity:0.004" fill="#000" d="M 225.5,50.5 C 224.833,49.1667 224.833,49.1667 225.5,50.5 Z"/></g>
<g><path style="opacity:0.004" fill="#000" d="M 225.5,50.5 C 226.833,51.1667 226.833,51.1667 225.5,50.5 Z"/></g>
<g><path style="opacity:1" fill="#000" d="M 152.5,45.5 C 161.363,45.8001 169.696,47.8001 177.5,51.5C 176.07,51.5792 174.736,51.2458 173.5,50.5C 173.264,51.2472 172.93,52.0805 172.5,53C 168.916,54.2916 165.249,55.2916 161.5,56C 162.993,57.1562 162.826,57.9896 161,58.5C 158.5,59.3333 156,60.1667 153.5,61C 154.833,61.3333 156.167,61.6667 157.5,62C 160.744,65.1675 164.744,66.6675 169.5,66.5C 162.213,68.2561 154.879,70.2561 147.5,72.5C 149.834,69.9943 152.501,67.8277 155.5,66C 154.788,64.558 153.621,63.7247 152,63.5C 149.991,63.9949 147.824,63.9949 145.5,63.5C 150.193,60.8712 155.193,58.7046 160.5,57C 157.456,56.6371 154.456,56.1371 151.5,55.5C 144.352,54.5084 137.019,54.175 129.5,54.5C 136.728,53.5842 144.061,52.4175 151.5,51C 151.833,50.6667 152.167,50.3333 152.5,50C 148.551,49.1932 148.551,48.6932 152.5,48.5C 152.5,47.5 152.5,46.5 152.5,45.5 Z"/></g>
<g><path style="opacity:1" fill="#000" d="M 152.5,45.5 C 152.5,46.5 152.5,47.5 152.5,48.5C 148.551,48.6932 148.551,49.1932 152.5,50C 152.167,50.3333 151.833,50.6667 151.5,51C 144.061,52.4175 136.728,53.5842 129.5,54.5C 126.119,54.4595 122.786,54.7929 119.5,55.5C 119.225,53.1582 118.392,53.1582 117,55.5C 113.903,54.7107 113.736,53.544 116.5,52C 113.862,49.9066 114.196,48.4066 117.5,47.5C 129.015,44.6346 140.682,43.9679 152.5,45.5 Z"/></g>
<g><path style="opacity:1" fill="#000" d="M 117.5,47.5 C 114.196,48.4066 113.862,49.9066 116.5,52C 113.736,53.544 113.903,54.7107 117,55.5C 118.392,53.1582 119.225,53.1582 119.5,55.5C 118.5,56.1667 117.5,56.8333 116.5,57.5C 114.337,58.4691 112.004,59.3024 109.5,60C 113.038,60.5348 116.372,61.3681 119.5,62.5C 113.811,63.1638 108.811,61.8304 104.5,58.5C 102.958,57.8365 101.291,57.1698 99.5,56.5C 100.729,55.7189 102.062,55.2189 103.5,55C 104.711,54.1072 104.711,53.2739 103.5,52.5C 100.766,54.3706 97.7659,55.3706 94.5,55.5C 101.53,51.2664 109.197,48.5997 117.5,47.5 Z"/></g>
<g><path style="opacity:0.18" fill="#000" d="M 129.5,54.5 C 137.019,54.175 144.352,54.5084 151.5,55.5C 139.738,55.0338 128.071,55.7004 116.5,57.5C 117.5,56.8333 118.5,56.1667 119.5,55.5C 122.786,54.7929 126.119,54.4595 129.5,54.5 Z"/></g>
<g><path style="opacity:1" fill="#000" d="M 104.5,58.5 C 98.0805,60.2213 98.0805,61.5546 104.5,62.5C 103.67,64.1349 103.503,65.8016 104,67.5C 101.939,66.3866 100.939,65.0533 101,63.5C 99.6998,64.7073 98.1998,65.3739 96.5,65.5C 96.5,66.5 96.5,67.5 96.5,68.5C 95.8333,68.5 95.1667,68.5 94.5,68.5C 93.8333,68.5 93.1667,68.5 92.5,68.5C 90.1047,67.1857 87.6047,67.1857 85,68.5C 83.7574,66.1671 82.0907,65.5004 80,66.5C 78.2716,65.6477 78.105,64.6477 79.5,63.5C 84.0157,60.0734 89.0157,57.4068 94.5,55.5C 97.7659,55.3706 100.766,54.3706 103.5,52.5C 104.711,53.2739 104.711,54.1072 103.5,55C 102.062,55.2189 100.729,55.7189 99.5,56.5C 101.291,57.1698 102.958,57.8365 104.5,58.5 Z"/></g>
<g><path style="opacity:1" fill="#000" d="M 177.5,51.5 C 177.863,53.7773 178.863,54.4439 180.5,53.5C 181.893,55.6741 181.56,57.5074 179.5,59C 180.833,59.6667 181.833,60.6667 182.5,62C 181.216,62.6838 180.049,62.5171 179,61.5C 176.521,63.3141 174.021,64.9808 171.5,66.5C 170.833,66.5 170.167,66.5 169.5,66.5C 164.744,66.6675 160.744,65.1675 157.5,62C 156.167,61.6667 154.833,61.3333 153.5,61C 156,60.1667 158.5,59.3333 161,58.5C 162.826,57.9896 162.993,57.1562 161.5,56C 165.249,55.2916 168.916,54.2916 172.5,53C 172.93,52.0805 173.264,51.2472 173.5,50.5C 174.736,51.2458 176.07,51.5792 177.5,51.5 Z"/></g>
<g><path style="opacity:1" fill="#000" d="M 177.5,51.5 C 188.944,55.7177 199.278,61.7177 208.5,69.5C 206.246,69.7228 203.912,70.0561 201.5,70.5C 200.273,71.5904 199.44,72.9238 199,74.5C 196.664,73.7079 196.164,72.3746 197.5,70.5C 196.243,68.3211 194.743,66.3211 193,64.5C 191.681,66.2495 191.181,68.2495 191.5,70.5C 192.822,70.33 193.989,70.6634 195,71.5C 195.853,75.9125 197.353,79.9125 199.5,83.5C 195.78,77.9417 191.447,72.775 186.5,68C 181.763,65.3673 176.763,64.8673 171.5,66.5C 174.021,64.9808 176.521,63.3141 179,61.5C 180.049,62.5171 181.216,62.6838 182.5,62C 181.833,60.6667 180.833,59.6667 179.5,59C 181.56,57.5074 181.893,55.6741 180.5,53.5C 178.863,54.4439 177.863,53.7773 177.5,51.5 Z"/></g>
<g><path style="opacity:1" fill="#000" d="M 79.5,63.5 C 78.105,64.6477 78.2716,65.6477 80,66.5C 82.0907,65.5004 83.7574,66.1671 85,68.5C 87.6047,67.1857 90.1047,67.1857 92.5,68.5C 89.3864,69.0913 86.8864,70.758 85,73.5C 81.236,78.0559 77.736,82.7225 74.5,87.5C 74.631,86.7611 74.4643,86.0944 74,85.5C 69.5555,88.0082 69.3888,87.5082 73.5,84C 74.448,83.5172 75.448,83.3505 76.5,83.5C 76.6882,81.8967 76.1882,80.5634 75,79.5C 74.3741,81.9913 73.5407,81.9913 72.5,79.5C 72.5105,80.4415 72.0105,81.1081 71,81.5C 71.1672,79.5577 70.1672,77.8911 68,76.5C 67.1072,77.7112 66.2739,77.7112 65.5,76.5C 69.5888,73.7087 69.2554,73.0421 64.5,74.5C 68.9586,70.1031 73.9586,66.4365 79.5,63.5 Z"/></g>
<g><path style="opacity:1" fill="#000" d="M 104.5,58.5 C 108.811,61.8304 113.811,63.1638 119.5,62.5C 120.167,62.5 120.833,62.5 121.5,62.5C 121.461,63.5832 121.127,64.5832 120.5,65.5C 122.5,66.3333 124.5,67.1667 126.5,68C 127.445,70.4463 129.111,71.9463 131.5,72.5C 131.083,73.1239 130.416,73.4573 129.5,73.5C 125.345,71.7752 121.011,71.1085 116.5,71.5C 116.033,73.711 115.033,75.711 113.5,77.5C 112.137,74.1321 110.804,71.4655 109.5,69.5C 105.19,68.9198 100.857,68.5865 96.5,68.5C 96.5,67.5 96.5,66.5 96.5,65.5C 98.1998,65.3739 99.6998,64.7073 101,63.5C 100.939,65.0533 101.939,66.3866 104,67.5C 103.503,65.8016 103.67,64.1349 104.5,62.5C 98.0805,61.5546 98.0805,60.2213 104.5,58.5 Z"/></g>
<g><path style="opacity:1" fill="#000" d="M 121.5,62.5 C 127.091,63.8208 132.757,64.8208 138.5,65.5C 141.109,65.5587 143.443,64.892 145.5,63.5C 147.824,63.9949 149.991,63.9949 152,63.5C 153.621,63.7247 154.788,64.558 155.5,66C 152.501,67.8277 149.834,69.9943 147.5,72.5C 145.584,70.8843 144.084,71.2177 143,73.5C 142.586,73.0426 142.086,72.7093 141.5,72.5C 139.925,73.4565 138.258,74.1231 136.5,74.5C 135.448,74.6495 134.448,74.4828 133.5,74C 135.392,73.0266 137.392,72.3599 139.5,72C 136.808,71.5702 134.141,71.7369 131.5,72.5C 129.111,71.9463 127.445,70.4463 126.5,68C 124.5,67.1667 122.5,66.3333 120.5,65.5C 121.127,64.5832 121.461,63.5832 121.5,62.5 Z"/></g>
<g><path style="opacity:1" fill="#000" d="M 208.5,69.5 C 211.899,71.3883 214.899,73.8883 217.5,77C 213.658,79.3586 209.992,81.8586 206.5,84.5C 204.876,84.3601 203.71,85.0267 203,86.5C 202.241,84.9371 201.074,83.9371 199.5,83.5C 197.353,79.9125 195.853,75.9125 195,71.5C 193.989,70.6634 192.822,70.33 191.5,70.5C 191.181,68.2495 191.681,66.2495 193,64.5C 194.743,66.3211 196.243,68.3211 197.5,70.5C 196.164,72.3746 196.664,73.7079 199,74.5C 199.44,72.9238 200.273,71.5904 201.5,70.5C 203.912,70.0561 206.246,69.7228 208.5,69.5 Z"/></g>
<g><path style="opacity:1" fill="#000" d="M 147.5,72.5 C 149.55,78.5678 152.883,83.9011 157.5,88.5C 159.003,89.0522 160.669,89.0522 162.5,88.5C 160.285,90.5737 157.785,90.9071 155,89.5C 154.667,90.1667 154.333,90.8333 154,91.5C 152.863,90.636 151.53,89.636 150,88.5C 149.289,90.3668 149.789,91.8668 151.5,93C 149.231,95.0229 146.564,95.8563 143.5,95.5C 144.6,94.4415 145.934,93.6082 147.5,93C 143.186,87.5317 139.52,81.6983 136.5,75.5C 136.5,75.1667 136.5,74.8333 136.5,74.5C 138.258,74.1231 139.925,73.4565 141.5,72.5C 142.086,72.7093 142.586,73.0426 143,73.5C 144.084,71.2177 145.584,70.8843 147.5,72.5 Z"/></g>
<g><path style="opacity:1" fill="#000" d="M 243.5,80.5 C 242.022,80.238 240.689,80.5713 239.5,81.5C 239.709,82.086 240.043,82.586 240.5,83C 235.706,83.5547 231.206,83.388 227,82.5C 226.308,83.0253 225.808,83.6919 225.5,84.5C 226.706,86.1491 228.039,87.6491 229.5,89C 235.859,89.1694 242.193,89.6694 248.5,90.5C 250.833,91.8322 252.166,93.8322 252.5,96.5C 252.813,100.042 252.479,103.375 251.5,106.5C 253.234,98.4563 250.234,93.2896 242.5,91C 232.216,89.3356 223.216,91.8356 215.5,98.5C 216.555,94.4393 219.055,91.4393 223,89.5C 223.798,87.7412 223.631,86.0745 222.5,84.5C 220.584,85.2483 218.584,85.2483 216.5,84.5C 225.087,80.0469 234.087,78.7136 243.5,80.5 Z"/></g>
<g><path style="opacity:1" fill="#000" d="M 94.5,68.5 C 95.1667,68.5 95.8333,68.5 96.5,68.5C 100.857,68.5865 105.19,68.9198 109.5,69.5C 110.804,71.4655 112.137,74.1321 113.5,77.5C 115.033,75.711 116.033,73.711 116.5,71.5C 121.011,71.1085 125.345,71.7752 129.5,73.5C 130.416,73.4573 131.083,73.1239 131.5,72.5C 134.141,71.7369 136.808,71.5702 139.5,72C 137.392,72.3599 135.392,73.0266 133.5,74C 134.448,74.4828 135.448,74.6495 136.5,74.5C 136.5,74.8333 136.5,75.1667 136.5,75.5C 130.706,74.9703 125.04,74.137 119.5,73C 109.712,83.7512 102.379,95.9179 97.5,109.5C 97.1667,109.5 96.8333,109.5 96.5,109.5C 95.4415,110.6 94.6082,111.934 94,113.5C 92.5507,112.386 91.2173,111.386 90,110.5C 89.3333,113.167 88.6667,113.167 88,110.5C 87.5172,111.448 87.3505,112.448 87.5,113.5C 82.1301,113.392 76.7968,113.725 71.5,114.5C 67.9878,115.055 64.9878,114.388 62.5,112.5C 62.8333,112.5 63.1667,112.5 63.5,112.5C 70.976,112.816 78.6426,112.816 86.5,112.5C 90.5983,96.9148 97.9317,83.0815 108.5,71C 103.638,70.477 98.9716,69.6437 94.5,68.5 Z"/></g>
<g><path style="opacity:1" fill="#000" d="M 243.5,80.5 C 246.421,80.2826 249.087,80.9493 251.5,82.5C 251.5,83.5 251.5,84.5 251.5,85.5C 258.201,88.2531 259.868,92.9198 256.5,99.5C 255.194,98.0878 254.36,96.4211 254,94.5C 253.722,95.4158 253.222,96.0825 252.5,96.5C 252.166,93.8322 250.833,91.8322 248.5,90.5C 242.193,89.6694 235.859,89.1694 229.5,89C 228.039,87.6491 226.706,86.1491 225.5,84.5C 225.808,83.6919 226.308,83.0253 227,82.5C 231.206,83.388 235.706,83.5547 240.5,83C 240.043,82.586 239.709,82.086 239.5,81.5C 240.689,80.5713 242.022,80.238 243.5,80.5 Z"/></g>
<g><path style="opacity:1" fill="#000" d="M 199.5,83.5 C 201.074,83.9371 202.241,84.9371 203,86.5C 203.71,85.0267 204.876,84.3601 206.5,84.5C 204.397,87.7198 202.064,90.7198 199.5,93.5C 189.695,94.0686 180.028,95.0686 170.5,96.5C 164.902,98.029 159.236,99.6957 153.5,101.5C 154.759,99.3956 156.259,97.3956 158,95.5C 159.016,96.6341 159.683,96.3008 160,94.5C 161.418,96.3632 163.251,96.8632 165.5,96C 164.833,95.6667 164.167,95.3333 163.5,95C 163.727,93.8647 164.06,92.698 164.5,91.5C 165.967,90.3047 167.467,90.3047 169,91.5C 170.762,91.0556 170.595,90.5556 168.5,90C 174.291,89.6793 174.624,88.846 169.5,87.5C 167.218,88.2234 164.884,88.5567 162.5,88.5C 174.711,84.123 187.211,83.4563 200,86.5C 200.47,85.4232 200.303,84.4232 199.5,83.5 Z"/></g>
<g><path style="opacity:1" fill="#000" d="M 216.5,84.5 C 218.584,85.2483 220.584,85.2483 222.5,84.5C 223.631,86.0745 223.798,87.7412 223,89.5C 219.055,91.4393 216.555,94.4393 215.5,98.5C 215.5,99.1667 215.167,99.5 214.5,99.5C 213.118,99.5978 211.618,99.5978 210,99.5C 208.133,101.808 207.133,104.475 207,107.5C 204.121,108.909 202.455,111.243 202,114.5C 200.938,112.792 199.771,112.126 198.5,112.5C 199.309,110.929 199.643,109.262 199.5,107.5C 201.828,97.1976 207.495,89.5309 216.5,84.5 Z"/></g>
<g><path style="opacity:1" fill="#000" d="M 74.5,87.5 C 70.8345,89.7474 67.5012,89.7474 64.5,87.5C 61.9257,87.1402 59.2591,87.8068 56.5,89.5C 55.8333,91.5 55.1667,93.5 54.5,95.5C 52.3584,96.6005 50.1917,97.6005 48,98.5C 47.8253,95.8428 47.9919,93.1761 48.5,90.5C 52.8333,84.1667 58.1667,78.8333 64.5,74.5C 69.2554,73.0421 69.5888,73.7087 65.5,76.5C 66.2739,77.7112 67.1072,77.7112 68,76.5C 70.1672,77.8911 71.1672,79.5577 71,81.5C 72.0105,81.1081 72.5105,80.4415 72.5,79.5C 73.5407,81.9913 74.3741,81.9913 75,79.5C 76.1882,80.5634 76.6882,81.8967 76.5,83.5C 75.448,83.3505 74.448,83.5172 73.5,84C 69.3888,87.5082 69.5555,88.0082 74,85.5C 74.4643,86.0944 74.631,86.7611 74.5,87.5 Z"/></g>
<g><path style="opacity:1" fill="#000" d="M 199.5,93.5 C 197.628,95.0615 195.295,96.0615 192.5,96.5C 193.347,97.8448 194.513,98.8448 196,99.5C 196.74,100.749 196.573,101.749 195.5,102.5C 195.126,100.05 193.626,99.0503 191,99.5C 187.592,100.619 184.092,101.286 180.5,101.5C 181.209,100.596 182.209,100.263 183.5,100.5C 183.5,98.8333 183.5,97.1667 183.5,95.5C 179.202,96.1995 174.869,96.5328 170.5,96.5C 180.028,95.0686 189.695,94.0686 199.5,93.5 Z"/></g>
<g><path style="opacity:1" fill="#000" d="M 235.5,93.5 C 239.776,93.3022 242.776,95.1355 244.5,99C 242.402,103.723 239.068,105.057 234.5,103C 230.266,99.2387 230.599,96.0721 235.5,93.5 Z"/></g>
<g><path style="opacity:1" fill="#000" d="M 153.5,101.5 C 152.833,101.833 152.167,102.167 151.5,102.5C 150.957,102.56 150.624,102.893 150.5,103.5C 154.094,106.065 154.261,108.731 151,111.5C 149.691,109.109 148.691,109.109 148,111.5C 147.333,110.167 146.667,110.167 146,111.5C 144.312,110.675 144.145,109.675 145.5,108.5C 143.392,107.056 141.059,106.39 138.5,106.5C 137.371,104.372 137.204,102.039 138,99.5C 139.073,100.28 140.24,100.113 141.5,99C 140.833,98.6667 140.167,98.3333 139.5,98C 141.32,97.7996 142.653,96.9663 143.5,95.5C 146.564,95.8563 149.231,95.0229 151.5,93C 149.789,91.8668 149.289,90.3668 150,88.5C 151.53,89.636 152.863,90.636 154,91.5C 154.333,90.8333 154.667,90.1667 155,89.5C 157.785,90.9071 160.285,90.5737 162.5,88.5C 164.884,88.5567 167.218,88.2234 169.5,87.5C 174.624,88.846 174.291,89.6793 168.5,90C 170.595,90.5556 170.762,91.0556 169,91.5C 167.467,90.3047 165.967,90.3047 164.5,91.5C 164.06,92.698 163.727,93.8647 163.5,95C 164.167,95.3333 164.833,95.6667 165.5,96C 163.251,96.8632 161.418,96.3632 160,94.5C 159.683,96.3008 159.016,96.6341 158,95.5C 156.259,97.3956 154.759,99.3956 153.5,101.5 Z"/></g>
<g><path style="opacity:1" fill="#000" d="M 251.5,82.5 C 256.784,84.3556 260.284,88.0223 262,93.5C 262.667,99.5 262.667,105.5 262,111.5C 260.841,114.493 258.675,116.16 255.5,116.5C 251.05,116.451 248.383,114.284 247.5,110C 248.056,108.989 248.722,108.156 249.5,107.5C 249.842,106.662 250.508,106.328 251.5,106.5C 252.479,103.375 252.813,100.042 252.5,96.5C 253.222,96.0825 253.722,95.4158 254,94.5C 254.36,96.4211 255.194,98.0878 256.5,99.5C 259.868,92.9198 258.201,88.2531 251.5,85.5C 251.5,84.5 251.5,83.5 251.5,82.5 Z"/></g>
<g><path style="opacity:1" fill="#000" d="M 64.5,87.5 C 64.1667,88.5 63.5,89.1667 62.5,89.5C 61.8333,89.5 61.5,89.8333 61.5,90.5C 60.6618,90.8417 60.3284,91.5084 60.5,92.5C 59.8333,92.5 59.5,92.8333 59.5,93.5C 57.5372,94.9599 55.7038,96.6266 54,98.5C 51.2928,103.416 48.4594,108.249 45.5,113C 47.8098,113.497 50.1432,113.663 52.5,113.5C 49.7699,114.817 46.9365,114.817 44,113.5C 43.5172,114.448 43.3505,115.448 43.5,116.5C 42.1847,113.688 40.018,111.688 37,110.5C 36.3076,111.025 35.8076,111.692 35.5,112.5C 38.101,113.713 37.9343,115.713 35,118.5C 34.6667,117.833 34.3333,117.167 34,116.5C 33.7216,117.416 33.2216,118.082 32.5,118.5C 35.7811,107.931 41.1144,98.5978 48.5,90.5C 47.9919,93.1761 47.8253,95.8428 48,98.5C 50.1917,97.6005 52.3584,96.6005 54.5,95.5C 55.1667,93.5 55.8333,91.5 56.5,89.5C 59.2591,87.8068 61.9257,87.1402 64.5,87.5 Z"/></g>
<g><path style="opacity:1" fill="#000" d="M 195.5,102.5 C 195.304,106.465 193.97,109.965 191.5,113C 184.413,113.25 177.413,114.083 170.5,115.5C 169.833,115.5 169.167,115.5 168.5,115.5C 167.527,115.013 166.527,114.513 165.5,114C 167.391,111.198 170.058,110.032 173.5,110.5C 173.36,108.876 174.027,107.71 175.5,107C 172.49,104.85 169.657,105.016 167,107.5C 166.329,106.748 165.496,106.414 164.5,106.5C 169.367,103.657 174.7,101.991 180.5,101.5C 184.092,101.286 187.592,100.619 191,99.5C 193.626,99.0503 195.126,100.05 195.5,102.5 Z"/></g>
<g><path style="opacity:1" fill="#000" d="M 64.5,87.5 C 67.5012,89.7474 70.8345,89.7474 74.5,87.5C 70.0235,95.4552 66.3568,103.789 63.5,112.5C 63.1667,112.5 62.8333,112.5 62.5,112.5C 62.0954,111.45 61.4288,111.45 60.5,112.5C 59.5536,110.058 58.0536,108.058 56,106.5C 55.3299,109.174 54.1632,111.507 52.5,113.5C 54.2686,106.631 56.6019,99.9642 59.5,93.5C 60.1667,93.5 60.5,93.1667 60.5,92.5C 61.3382,92.1583 61.6716,91.4916 61.5,90.5C 62.1667,90.5 62.5,90.1667 62.5,89.5C 63.5,89.1667 64.1667,88.5 64.5,87.5 Z"/></g>
<g><path style="opacity:0.999" fill="#000" d="M 143.5,95.5 C 142.653,96.9663 141.32,97.7996 139.5,98C 140.167,98.3333 140.833,98.6667 141.5,99C 140.24,100.113 139.073,100.28 138,99.5C 137.204,102.039 137.371,104.372 138.5,106.5C 138.5,106.833 138.5,107.167 138.5,107.5C 132.57,110.961 126.236,113.627 119.5,115.5C 119.5,117.833 119.5,120.167 119.5,122.5C 118.166,120.534 116.832,118.534 115.5,116.5C 113.162,116.816 111.496,117.816 110.5,119.5C 110.5,119.167 110.5,118.833 110.5,118.5C 109.992,116.767 109.159,116.434 108,117.5C 107.316,116.216 107.483,115.049 108.5,114C 107.672,113.085 106.672,112.419 105.5,112C 102.525,111.956 99.5248,112.123 96.5,112.5C 96.5,111.5 96.5,110.5 96.5,109.5C 96.8333,109.5 97.1667,109.5 97.5,109.5C 97.3691,110.376 97.7025,111.043 98.5,111.5C 113.805,106.954 128.805,101.621 143.5,95.5 Z"/></g>
<g><path style="opacity:0.345" fill="#000" d="M 245.5,108.5 C 238.687,109.491 231.687,109.825 224.5,109.5C 224.806,112.385 224.473,115.052 223.5,117.5C 223.055,114.72 223.055,112.053 223.5,109.5C 230.803,108.503 238.137,108.169 245.5,108.5 Z"/></g>
<g><path style="opacity:1" fill="#000" d="M 214.5,99.5 C 211.207,111.591 205.207,122.091 196.5,131C 194.35,132.411 192.016,133.245 189.5,133.5C 190.923,131.455 192.923,130.455 195.5,130.5C 195.34,128.801 195.506,127.134 196,125.5C 196.893,126.711 197.726,126.711 198.5,125.5C 196.525,124.212 196.525,122.545 198.5,120.5C 197.502,117.972 196.669,117.972 196,120.5C 195.586,120.043 195.086,119.709 194.5,119.5C 191.884,121.803 188.884,123.136 185.5,123.5C 192.629,120.368 197.296,115.035 199.5,107.5C 199.643,109.262 199.309,110.929 198.5,112.5C 199.771,112.126 200.938,112.792 202,114.5C 202.455,111.243 204.121,108.909 207,107.5C 207.133,104.475 208.133,101.808 210,99.5C 211.618,99.5978 213.118,99.5978 214.5,99.5 Z"/></g>
<g><path style="opacity:1" fill="#000" d="M 249.5,107.5 C 248.722,108.156 248.056,108.989 247.5,110C 248.383,114.284 251.05,116.451 255.5,116.5C 249.179,118.95 242.512,120.45 235.5,121C 232.642,122.694 230.309,124.861 228.5,127.5C 228.229,125.179 228.896,123.179 230.5,121.5C 229.975,120.808 229.308,120.308 228.5,120C 229.451,119.282 229.617,118.449 229,117.5C 227.488,118.257 226.154,119.257 225,120.5C 224.658,118.381 223.825,118.047 222.5,119.5C 222.328,118.508 222.662,117.842 223.5,117.5C 224.473,115.052 224.806,112.385 224.5,109.5C 231.687,109.825 238.687,109.491 245.5,108.5C 246.568,107.566 247.901,107.232 249.5,107.5 Z"/></g>
<g><path style="opacity:1" fill="#000" d="M 96.5,109.5 C 96.5,110.5 96.5,111.5 96.5,112.5C 99.5248,112.123 102.525,111.956 105.5,112C 106.672,112.419 107.672,113.085 108.5,114C 107.483,115.049 107.316,116.216 108,117.5C 109.159,116.434 109.992,116.767 110.5,118.5C 109.209,118.263 108.209,118.596 107.5,119.5C 107.167,119.5 106.833,119.5 106.5,119.5C 103.626,119.451 100.792,119.784 98,120.5C 97.1667,120.167 96.3333,119.833 95.5,119.5C 95.4669,118.011 94.9669,116.678 94,115.5C 93.4806,116.516 92.6473,117.182 91.5,117.5C 90.1667,116.833 88.8333,116.167 87.5,115.5C 84.9275,117.15 82.9275,119.317 81.5,122C 73.9885,122.171 66.6552,122.671 59.5,123.5C 57.7973,124.66 57.1307,123.993 57.5,121.5C 58.4391,112.662 60.2724,111.996 63,119.5C 65.917,117.906 68.7503,116.239 71.5,114.5C 76.7968,113.725 82.1301,113.392 87.5,113.5C 87.3505,112.448 87.5172,111.448 88,110.5C 88.6667,113.167 89.3333,113.167 90,110.5C 91.2173,111.386 92.5507,112.386 94,113.5C 94.6082,111.934 95.4415,110.6 96.5,109.5 Z"/></g>
<g><path style="opacity:0.004" fill="#000" d="M 182.5,114.5 C 183.833,115.167 183.833,115.167 182.5,114.5 Z"/></g>
<g><path style="opacity:1" fill="#000" d="M 106.5,119.5 C 104.162,121.04 101.495,121.706 98.5,121.5C 95.9208,121.083 93.7542,121.75 92,123.5C 90.8379,129.445 90.3379,135.445 90.5,141.5C 90.3379,143.527 90.5045,145.527 91,147.5C 94.3244,145.421 97.8244,143.754 101.5,142.5C 100.086,144.138 100.42,145.472 102.5,146.5C 100.955,147.452 99.288,147.785 97.5,147.5C 97.44,146.957 97.1067,146.624 96.5,146.5C 94.2706,147.577 91.9372,148.244 89.5,148.5C 88.2592,140.641 87.2592,131.975 86.5,122.5C 85.7964,125.704 85.1298,128.871 84.5,132C 84.8333,132.333 85.1667,132.667 85.5,133C 84.051,134.102 82.7177,135.269 81.5,136.5C 81.5865,132.143 81.9198,127.81 82.5,123.5C 74.5585,122.919 66.8919,123.586 59.5,125.5C 59.5,124.833 59.5,124.167 59.5,123.5C 66.6552,122.671 73.9885,122.171 81.5,122C 82.9275,119.317 84.9275,117.15 87.5,115.5C 88.8333,116.167 90.1667,116.833 91.5,117.5C 92.6473,117.182 93.4806,116.516 94,115.5C 94.9669,116.678 95.4669,118.011 95.5,119.5C 96.3333,119.833 97.1667,120.167 98,120.5C 100.792,119.784 103.626,119.451 106.5,119.5 Z"/></g>
<g><path style="opacity:1" fill="#000" d="M 151.5,102.5 C 154.566,107.524 158.899,108.857 164.5,106.5C 164.082,107.222 163.416,107.722 162.5,108C 163.672,108.419 164.672,109.085 165.5,110C 164.051,111.117 162.384,111.784 160.5,112C 160.833,112.333 161.167,112.667 161.5,113C 159.167,113.667 156.833,113.667 154.5,113C 155.654,112.086 155.487,111.253 154,110.5C 153.293,112.081 152.46,113.581 151.5,115C 153.518,117.646 155.851,119.813 158.5,121.5C 152.539,124.481 146.539,127.481 140.5,130.5C 141.706,129.12 141.373,127.953 139.5,127C 140.672,126.647 141.838,126.813 143,127.5C 144.762,127.056 144.595,126.556 142.5,126C 144.553,124.798 146.553,124.464 148.5,125C 146.109,123.691 146.109,122.691 148.5,122C 147.833,120.667 146.833,119.667 145.5,119C 147.595,118.444 147.762,117.944 146,117.5C 143.681,118.871 141.181,119.538 138.5,119.5C 141.263,117.92 143.93,116.087 146.5,114C 144.595,112.185 142.928,110.185 141.5,108C 140.552,107.517 139.552,107.351 138.5,107.5C 138.5,107.167 138.5,106.833 138.5,106.5C 141.059,106.39 143.392,107.056 145.5,108.5C 144.145,109.675 144.312,110.675 146,111.5C 146.667,110.167 147.333,110.167 148,111.5C 148.691,109.109 149.691,109.109 151,111.5C 154.261,108.731 154.094,106.065 150.5,103.5C 150.624,102.893 150.957,102.56 151.5,102.5 Z"/></g>
<g><path style="opacity:1" fill="#000" d="M 62.5,112.5 C 64.9878,114.388 67.9878,115.055 71.5,114.5C 68.7503,116.239 65.917,117.906 63,119.5C 60.2724,111.996 58.4391,112.662 57.5,121.5C 56.448,121.351 55.448,121.517 54.5,122C 52.1749,124.175 50.5082,126.675 49.5,129.5C 49.5,127.5 49.5,125.5 49.5,123.5C 47.8333,123.5 46.1667,123.5 44.5,123.5C 43.5707,122.685 42.5707,121.852 41.5,121C 43.1066,119.951 43.7733,118.451 43.5,116.5C 43.3505,115.448 43.5172,114.448 44,113.5C 46.9365,114.817 49.7699,114.817 52.5,113.5C 54.1632,111.507 55.3299,109.174 56,106.5C 58.0536,108.058 59.5536,110.058 60.5,112.5C 61.4288,111.45 62.0954,111.45 62.5,112.5 Z"/></g>
<g><path style="opacity:0.031" fill="#000" d="M 20.5,115.5 C 20.8342,118.188 20.1675,120.521 18.5,122.5C 17.4246,123.562 16.4246,123.562 15.5,122.5C 16.8378,119.824 18.1711,117.158 19.5,114.5C 20.1067,114.624 20.44,114.957 20.5,115.5 Z"/></g>
<g><path style="opacity:1" fill="#000" d="M 168.5,115.5 C 169.167,115.5 169.833,115.5 170.5,115.5C 169.697,116.423 169.53,117.423 170,118.5C 174.368,122.599 179.535,124.266 185.5,123.5C 185.5,123.833 185.5,124.167 185.5,124.5C 181.785,124.68 178.118,124.346 174.5,123.5C 172.912,122.99 171.745,121.99 171,120.5C 170.577,121.956 169.744,122.456 168.5,122C 168.784,120.044 168.784,117.877 168.5,115.5 Z"/></g>
<g><path style="opacity:0.016" fill="#000" d="M 20.5,115.5 C 21.6225,117.288 21.7891,119.288 21,121.5C 20.3292,122.252 19.4959,122.586 18.5,122.5C 20.1675,120.521 20.8342,118.188 20.5,115.5 Z"/></g>
<g><path style="opacity:1" fill="#000" d="M 119.5,122.5 C 119.337,124.857 119.503,127.19 120,129.5C 121.33,128.418 122.83,127.751 124.5,127.5C 121.194,131.171 117.527,134.671 113.5,138C 115.588,139.03 117.755,139.863 120,140.5C 122.52,138.314 125.353,136.314 128.5,134.5C 129.417,135.127 130.417,135.461 131.5,135.5C 122.289,141.702 115.289,149.702 110.5,159.5C 110.703,157.61 110.037,156.11 108.5,155C 109.817,150.736 109.817,146.402 108.5,142C 106.536,141.376 104.869,141.876 103.5,143.5C 102.817,143.137 102.15,142.804 101.5,142.5C 103.663,140.917 105.996,139.584 108.5,138.5C 110.484,138.516 111.484,137.516 111.5,135.5C 110.598,130.209 110.265,124.876 110.5,119.5C 111.496,117.816 113.162,116.816 115.5,116.5C 116.832,118.534 118.166,120.534 119.5,122.5 Z"/></g>
<g><path style="opacity:1" fill="#000" d="M 140.5,130.5 C 137.992,132.924 134.992,134.59 131.5,135.5C 130.417,135.461 129.417,135.127 128.5,134.5C 125.353,136.314 122.52,138.314 120,140.5C 117.755,139.863 115.588,139.03 113.5,138C 117.527,134.671 121.194,131.171 124.5,127.5C 128.806,124.343 133.472,121.676 138.5,119.5C 141.181,119.538 143.681,118.871 146,117.5C 147.762,117.944 147.595,118.444 145.5,119C 146.833,119.667 147.833,120.667 148.5,122C 146.109,122.691 146.109,123.691 148.5,125C 146.553,124.464 144.553,124.798 142.5,126C 144.595,126.556 144.762,127.056 143,127.5C 141.838,126.813 140.672,126.647 139.5,127C 141.373,127.953 141.706,129.12 140.5,130.5 Z"/></g>
<g><path style="opacity:1" fill="#000" d="M 168.5,115.5 C 168.784,117.877 168.784,120.044 168.5,122C 169.744,122.456 170.577,121.956 171,120.5C 171.745,121.99 172.912,122.99 174.5,123.5C 178.118,124.346 181.785,124.68 185.5,124.5C 182.972,125.166 180.306,125.832 177.5,126.5C 175.829,128.51 175.162,130.843 175.5,133.5C 174.5,133.5 173.5,133.5 172.5,133.5C 172.167,133.5 171.833,133.5 171.5,133.5C 168.549,131.718 166.049,129.385 164,126.5C 163.667,126.833 163.333,127.167 163,127.5C 162.503,125.19 162.337,122.857 162.5,120.5C 160.901,120.232 159.568,120.566 158.5,121.5C 155.851,119.813 153.518,117.646 151.5,115C 152.46,113.581 153.293,112.081 154,110.5C 155.487,111.253 155.654,112.086 154.5,113C 156.833,113.667 159.167,113.667 161.5,113C 161.167,112.667 160.833,112.333 160.5,112C 162.384,111.784 164.051,111.117 165.5,110C 164.672,109.085 163.672,108.419 162.5,108C 163.416,107.722 164.082,107.222 164.5,106.5C 165.496,106.414 166.329,106.748 167,107.5C 169.657,105.016 172.49,104.85 175.5,107C 174.027,107.71 173.36,108.876 173.5,110.5C 170.058,110.032 167.391,111.198 165.5,114C 166.527,114.513 167.527,115.013 168.5,115.5 Z"/></g>
<g><path style="opacity:1" fill="#000" d="M 189.5,133.5 C 183.822,136.086 178.156,136.086 172.5,133.5C 173.5,133.5 174.5,133.5 175.5,133.5C 175.162,130.843 175.829,128.51 177.5,126.5C 180.306,125.832 182.972,125.166 185.5,124.5C 185.5,124.167 185.5,123.833 185.5,123.5C 188.884,123.136 191.884,121.803 194.5,119.5C 195.086,119.709 195.586,120.043 196,120.5C 196.669,117.972 197.502,117.972 198.5,120.5C 196.525,122.545 196.525,124.212 198.5,125.5C 197.726,126.711 196.893,126.711 196,125.5C 195.506,127.134 195.34,128.801 195.5,130.5C 192.923,130.455 190.923,131.455 189.5,133.5 Z"/></g>
<g><path style="opacity:0.482" fill="#000" d="M 40.5,124.5 C 41.5676,123.566 42.901,123.232 44.5,123.5C 46.1667,123.5 47.8333,123.5 49.5,123.5C 49.5,125.5 49.5,127.5 49.5,129.5C 49.8064,132.385 49.4731,135.052 48.5,137.5C 48.5,133.167 48.5,128.833 48.5,124.5C 45.8333,124.5 43.1667,124.5 40.5,124.5 Z"/></g>
<g><path style="opacity:1" fill="#000" d="M 43.5,116.5 C 43.7733,118.451 43.1066,119.951 41.5,121C 42.5707,121.852 43.5707,122.685 44.5,123.5C 42.901,123.232 41.5676,123.566 40.5,124.5C 40.7373,125.791 40.404,126.791 39.5,127.5C 36.4555,133.355 34.7889,139.689 34.5,146.5C 33.9072,143.5 33.0739,140.5 32,137.5C 31.3467,141.809 29.8467,145.809 27.5,149.5C 27.8333,150.167 28.1667,150.833 28.5,151.5C 29.3957,150.494 30.0623,150.494 30.5,151.5C 28.3955,153.259 26.7288,155.259 25.5,157.5C 24.5722,154.87 23.5722,152.204 22.5,149.5C 25.5907,138.994 28.924,128.661 32.5,118.5C 33.2216,118.082 33.7216,117.416 34,116.5C 34.3333,117.167 34.6667,117.833 35,118.5C 37.9343,115.713 38.101,113.713 35.5,112.5C 35.8076,111.692 36.3076,111.025 37,110.5C 40.018,111.688 42.1847,113.688 43.5,116.5 Z"/></g>
<g><path style="opacity:1" fill="#000" d="M 57.5,121.5 C 57.1307,123.993 57.7973,124.66 59.5,123.5C 59.5,124.167 59.5,124.833 59.5,125.5C 58.6862,127.631 58.1862,129.964 58,132.5C 57.3333,140.5 57.3333,148.5 58,156.5C 61.73,157.46 65.5633,157.793 69.5,157.5C 67.7816,158.224 65.9483,158.891 64,159.5C 63.8333,159.833 63.6667,160.167 63.5,160.5C 64.6888,161.429 66.0222,161.762 67.5,161.5C 67.5,162.833 67.5,164.167 67.5,165.5C 62.2474,166.165 57.414,165.165 53,162.5C 51.4411,163.029 49.9411,163.696 48.5,164.5C 47.5258,162.257 47.1924,159.924 47.5,157.5C 47.4727,150.981 47.806,144.314 48.5,137.5C 49.4731,135.052 49.8064,132.385 49.5,129.5C 50.5082,126.675 52.1749,124.175 54.5,122C 55.448,121.517 56.448,121.351 57.5,121.5 Z"/></g>
<g><path style="opacity:0.502" fill="#000" d="M 98.5,121.5 C 97.0813,122.451 95.4147,122.784 93.5,122.5C 92.4286,128.956 91.4286,135.289 90.5,141.5C 90.3379,135.445 90.8379,129.445 92,123.5C 93.7542,121.75 95.9208,121.083 98.5,121.5 Z"/></g>
<g><path style="opacity:0.561" fill="#000" d="M 107.5,119.5 C 108.209,118.596 109.209,118.263 110.5,118.5C 110.5,118.833 110.5,119.167 110.5,119.5C 110.265,124.876 110.598,130.209 111.5,135.5C 111.484,137.516 110.484,138.516 108.5,138.5C 109.141,137.518 109.807,136.518 110.5,135.5C 109.717,130.553 109.217,125.553 109,120.5C 108.617,119.944 108.117,119.611 107.5,119.5 Z"/></g>
<g><path style="opacity:1" fill="#000" d="M 158.5,121.5 C 159.568,120.566 160.901,120.232 162.5,120.5C 162.337,122.857 162.503,125.19 163,127.5C 163.333,127.167 163.667,126.833 164,126.5C 166.049,129.385 168.549,131.718 171.5,133.5C 168.327,132.83 165.327,131.664 162.5,130C 161.736,127.931 161.236,125.764 161,123.5C 160.583,122.244 159.75,121.577 158.5,121.5 Z"/></g>
<g><path style="opacity:0.981" fill="#000" d="M 245.5,123.5 C 247.776,123.756 248.943,125.09 249,127.5C 249.392,131.528 249.892,135.528 250.5,139.5C 247.813,139.664 245.146,139.497 242.5,139C 240.598,138.801 239.098,137.967 238,136.5C 237.29,132.775 236.79,129.275 236.5,126C 239.628,125.159 242.628,124.325 245.5,123.5 Z"/></g>
<g><path style="opacity:1" fill="#000" d="M 228.5,127.5 C 227.341,131.151 225.674,134.485 223.5,137.5C 221.5,137.167 219.5,136.833 217.5,136.5C 217.031,133.661 217.031,130.995 217.5,128.5C 218.41,125.008 220.076,122.008 222.5,119.5C 223.825,118.047 224.658,118.381 225,120.5C 226.154,119.257 227.488,118.257 229,117.5C 229.617,118.449 229.451,119.282 228.5,120C 229.308,120.308 229.975,120.808 230.5,121.5C 228.896,123.179 228.229,125.179 228.5,127.5 Z"/></g>
<g><path style="opacity:0.082" fill="#000" d="M 229.5,141.5 C 235.557,140.262 241.557,140.595 247.5,142.5C 241.509,142.034 235.509,141.701 229.5,141.5 Z"/></g>
<g><path style="opacity:1" fill="#000" d="M 97.5,147.5 C 95.4442,150.049 92.7776,151.549 89.5,152C 92.9089,152.996 96.2423,153.829 99.5,154.5C 99.5,154.833 99.5,155.167 99.5,155.5C 96.3683,157.046 93.7017,159.046 91.5,161.5C 90.2101,160.942 89.3768,159.942 89,158.5C 87.1759,159.749 87.3426,160.915 89.5,162C 86.6945,163.382 84.3612,165.216 82.5,167.5C 82.5,167.167 82.5,166.833 82.5,166.5C 77.5138,166.493 72.5138,166.159 67.5,165.5C 67.5,164.167 67.5,162.833 67.5,161.5C 66.0222,161.762 64.6888,161.429 63.5,160.5C 63.6667,160.167 63.8333,159.833 64,159.5C 65.9483,158.891 67.7816,158.224 69.5,157.5C 70.791,157.737 71.791,157.404 72.5,156.5C 75.0092,155.887 77.5092,155.22 80,154.5C 80.2092,148.419 80.7092,142.419 81.5,136.5C 82.7177,135.269 84.051,134.102 85.5,133C 85.1667,132.667 84.8333,132.333 84.5,132C 85.1298,128.871 85.7964,125.704 86.5,122.5C 87.2592,131.975 88.2592,140.641 89.5,148.5C 91.9372,148.244 94.2706,147.577 96.5,146.5C 97.1067,146.624 97.44,146.957 97.5,147.5 Z"/></g>
<g><path style="opacity:0.388" fill="#000" d="M 152.5,148.5 C 146.019,145.706 139.353,145.039 132.5,146.5C 132.167,146.5 131.833,146.5 131.5,146.5C 131.918,145.778 132.584,145.278 133.5,145C 137.5,144.333 141.5,144.333 145.5,145C 148.281,145.522 150.615,146.689 152.5,148.5 Z"/></g>
<g><path style="opacity:1" fill="#000" d="M 110.5,159.5 C 108.521,162.146 106.188,164.479 103.5,166.5C 102.05,165.15 101.383,163.484 101.5,161.5C 101.664,158.813 101.497,156.146 101,153.5C 100.617,154.056 100.117,154.389 99.5,154.5C 96.2423,153.829 92.9089,152.996 89.5,152C 92.7776,151.549 95.4442,150.049 97.5,147.5C 99.288,147.785 100.955,147.452 102.5,146.5C 100.42,145.472 100.086,144.138 101.5,142.5C 102.15,142.804 102.817,143.137 103.5,143.5C 104.869,141.876 106.536,141.376 108.5,142C 109.817,146.402 109.817,150.736 108.5,155C 110.037,156.11 110.703,157.61 110.5,159.5 Z"/></g>
<g><path style="opacity:1" fill="#000" d="M 229.5,141.5 C 235.509,141.701 241.509,142.034 247.5,142.5C 250.916,142.528 253.916,143.528 256.5,145.5C 256.286,147.144 256.62,148.644 257.5,150C 255.649,150.837 253.816,151.671 252,152.5C 249.502,151.221 247.002,151.221 244.5,152.5C 237.716,152.92 231.05,152.42 224.5,151C 223.536,148.353 224.036,145.853 226,143.5C 226.816,142.177 227.983,141.511 229.5,141.5 Z"/></g>
<g><path style="opacity:1" fill="#000" d="M 152.5,148.5 C 157.141,150.76 160.141,154.427 161.5,159.5C 159.907,158.652 158.74,157.319 158,155.5C 157.683,157.301 157.016,157.634 156,156.5C 155.544,155.256 156.044,154.423 157.5,154C 154.854,153.503 152.187,153.336 149.5,153.5C 147.208,153.244 145.041,153.577 143,154.5C 142.333,153.833 141.667,153.167 141,152.5C 136.726,153.451 132.226,153.451 127.5,152.5C 128.924,150.282 130.924,148.782 133.5,148C 132.944,147.617 132.611,147.117 132.5,146.5C 139.353,145.039 146.019,145.706 152.5,148.5 Z"/></g>
<g><path style="opacity:0.682" fill="#000" d="M 39.5,127.5 C 37.7049,135.143 36.0382,142.809 34.5,150.5C 34.1667,150.5 33.8333,150.5 33.5,150.5C 33.4326,149.041 33.7659,147.708 34.5,146.5C 34.7889,139.689 36.4555,133.355 39.5,127.5 Z"/></g>
<g><path style="opacity:0.482" fill="#000" d="M 59.5,125.5 C 58.9994,135.503 58.8327,145.503 59,155.5C 63.4014,156.467 67.9014,156.8 72.5,156.5C 71.791,157.404 70.791,157.737 69.5,157.5C 65.5633,157.793 61.73,157.46 58,156.5C 57.3333,148.5 57.3333,140.5 58,132.5C 58.1862,129.964 58.6862,127.631 59.5,125.5 Z"/></g>
<g><path style="opacity:1" fill="#000" d="M 217.5,128.5 C 217.031,130.995 217.031,133.661 217.5,136.5C 219.5,136.833 221.5,137.167 223.5,137.5C 218.969,147.693 211.302,154.36 200.5,157.5C 198.365,155.631 195.698,154.964 192.5,155.5C 192.5,154.167 192.5,152.833 192.5,151.5C 185.811,151.946 179.144,152.613 172.5,153.5C 170.944,152.453 169.277,151.786 167.5,151.5C 177.213,152.325 186.88,151.158 196.5,148C 205.634,143.696 212.634,137.196 217.5,128.5 Z"/></g>
<g><path style="opacity:1" fill="#000" d="M 131.5,146.5 C 131.833,146.5 132.167,146.5 132.5,146.5C 132.611,147.117 132.944,147.617 133.5,148C 130.924,148.782 128.924,150.282 127.5,152.5C 132.226,153.451 136.726,153.451 141,152.5C 141.667,153.167 142.333,153.833 143,154.5C 145.041,153.577 147.208,153.244 149.5,153.5C 149.423,154.75 148.756,155.583 147.5,156C 149.577,156.192 151.577,156.692 153.5,157.5C 153.695,160.037 153.361,162.703 152.5,165.5C 149.084,155.796 142.751,153.296 133.5,158C 130.335,160.335 127.335,162.835 124.5,165.5C 125.446,160.725 123.78,157.391 119.5,155.5C 122.776,151.529 126.776,148.529 131.5,146.5 Z"/></g>
<g><path style="opacity:1" fill="#000" d="M 34.5,146.5 C 33.7659,147.708 33.4326,149.041 33.5,150.5C 33.3505,151.552 33.5172,152.552 34,153.5C 37.3466,157.033 40.5133,160.033 43.5,162.5C 40.7833,162.974 38.4499,163.974 36.5,165.5C 35.8333,165.5 35.1667,165.5 34.5,165.5C 34.5654,165.062 34.3988,164.728 34,164.5C 33.1841,165.823 32.0174,166.489 30.5,166.5C 28.9142,165.852 27.2475,165.352 25.5,165C 24.4625,162.793 24.4625,160.293 25.5,157.5C 26.7288,155.259 28.3955,153.259 30.5,151.5C 30.0623,150.494 29.3957,150.494 28.5,151.5C 28.1667,150.833 27.8333,150.167 27.5,149.5C 29.8467,145.809 31.3467,141.809 32,137.5C 33.0739,140.5 33.9072,143.5 34.5,146.5 Z"/></g>
<g><path style="opacity:1" fill="#000" d="M 167.5,151.5 C 169.277,151.786 170.944,152.453 172.5,153.5C 179.144,152.613 185.811,151.946 192.5,151.5C 192.5,152.833 192.5,154.167 192.5,155.5C 195.698,154.964 198.365,155.631 200.5,157.5C 196.678,159.122 192.678,160.122 188.5,160.5C 183.833,160.5 179.167,160.5 174.5,160.5C 169.117,161.616 166.117,159.449 165.5,154C 165.639,152.699 166.305,151.866 167.5,151.5 Z"/></g>
<g><path style="opacity:1" fill="#000" d="M 256.5,145.5 C 261.186,147.345 265.52,149.845 269.5,153C 271.79,154.777 273.457,156.944 274.5,159.5C 273.185,158.524 271.852,157.524 270.5,156.5C 269.41,157.727 268.076,158.56 266.5,159C 267.257,160.512 268.257,161.846 269.5,163C 268.833,163.333 268.167,163.667 267.5,164C 268.833,164.667 268.833,165.333 267.5,166C 268.328,166.915 269.328,167.581 270.5,168C 269.829,168.986 269.829,170.153 270.5,171.5C 264.084,162.083 255.417,155.75 244.5,152.5C 247.002,151.221 249.502,151.221 252,152.5C 253.816,151.671 255.649,150.837 257.5,150C 256.62,148.644 256.286,147.144 256.5,145.5 Z"/></g>
<g><path style="opacity:0.176" fill="#000" d="M 101.5,161.5 C 100.833,159.5 100.167,157.5 99.5,155.5C 99.5,155.167 99.5,154.833 99.5,154.5C 100.117,154.389 100.617,154.056 101,153.5C 101.497,156.146 101.664,158.813 101.5,161.5 Z"/></g>
<g><path style="opacity:1" fill="#000" d="M 33.5,150.5 C 33.8333,150.5 34.1667,150.5 34.5,150.5C 39.0004,152.583 43.3338,154.916 47.5,157.5C 47.1924,159.924 47.5258,162.257 48.5,164.5C 49.9411,163.696 51.4411,163.029 53,162.5C 57.414,165.165 62.2474,166.165 67.5,165.5C 72.5138,166.159 77.5138,166.493 82.5,166.5C 74.7639,167.405 67.0972,168.572 59.5,170C 60.7101,171.039 61.7101,172.206 62.5,173.5C 60.9139,172.587 59.4139,172.587 58,173.5C 56.9826,170.972 55.8159,170.972 54.5,173.5C 52.2864,171.076 51.2864,171.743 51.5,175.5C 54.5983,175.413 54.9316,175.913 52.5,177C 53.8333,178.333 53.8333,179.667 52.5,181C 54.7596,181.549 56.4262,182.716 57.5,184.5C 55.7162,184.107 54.0495,183.441 52.5,182.5C 49.3463,181.905 46.3463,181.905 43.5,182.5C 43.9153,180.253 44.5819,178.086 45.5,176C 44.7154,174.049 43.7154,172.215 42.5,170.5C 41.675,169.614 40.675,169.281 39.5,169.5C 39.5875,166.402 39.0875,166.068 38,168.5C 36.9614,167.756 36.4614,166.756 36.5,165.5C 38.4499,163.974 40.7833,162.974 43.5,162.5C 40.5133,160.033 37.3466,157.033 34,153.5C 33.5172,152.552 33.3505,151.552 33.5,150.5 Z"/></g>
<g><path style="opacity:1" fill="#000" d="M 119.5,155.5 C 123.78,157.391 125.446,160.725 124.5,165.5C 122.5,168.167 120.167,170.5 117.5,172.5C 115.976,171.826 114.642,170.826 113.5,169.5C 113.089,170.262 112.923,171.262 113,172.5C 111.615,171.449 110.615,170.116 110,168.5C 106.998,171.436 106.164,171.103 107.5,167.5C 110.55,165.451 112.883,162.784 114.5,159.5C 115.585,157.413 117.251,156.08 119.5,155.5 Z"/></g>
<g><path style="opacity:0.106" fill="#000" d="M 174.5,160.5 C 179.167,160.5 183.833,160.5 188.5,160.5C 191.833,161.167 195.167,161.833 198.5,162.5C 195.5,162.5 192.5,162.5 189.5,162.5C 188.5,162.5 187.5,162.5 186.5,162.5C 182.5,161.833 178.5,161.167 174.5,160.5 Z"/></g>
<g><path style="opacity:0.749" fill="#000" d="M 114.5,159.5 C 112.883,162.784 110.55,165.451 107.5,167.5C 108.75,165.068 110.25,162.734 112,160.5C 112.671,159.748 113.504,159.414 114.5,159.5 Z"/></g>
<g><path style="opacity:1" fill="#000" d="M 242.5,159.5 C 247.093,158.418 250.093,160.085 251.5,164.5C 247.733,171.121 244.066,171.121 240.5,164.5C 240.437,162.486 241.103,160.819 242.5,159.5 Z"/></g>
<g><path style="opacity:0.702" fill="#000" d="M 186.5,162.5 C 187.5,162.5 188.5,162.5 189.5,162.5C 182.747,164.221 175.747,164.888 168.5,164.5C 168.132,167.533 168.798,170.2 170.5,172.5C 169.5,172.5 168.5,172.5 167.5,172.5C 167.5,169.167 167.5,165.833 167.5,162.5C 173.833,163.833 180.167,163.833 186.5,162.5 Z"/></g>
<g><path style="opacity:0.982" fill="#000" d="M 189.5,162.5 C 192.5,162.5 195.5,162.5 198.5,162.5C 199.167,162.5 199.833,162.5 200.5,162.5C 203.421,163.194 206.421,164.027 209.5,165C 206.833,165.667 206.833,166.333 209.5,167C 207.774,168.53 205.774,169.53 203.5,170C 204.634,171.016 204.301,171.683 202.5,172C 200.527,172.495 198.527,172.662 196.5,172.5C 187.757,173.179 179.09,173.179 170.5,172.5C 168.798,170.2 168.132,167.533 168.5,164.5C 175.747,164.888 182.747,164.221 189.5,162.5 Z"/></g>
<g><path style="opacity:1" fill="#000" d="M 232.5,167.5 C 234.89,168.891 236.557,170.891 237.5,173.5C 238.323,175.455 238.49,177.455 238,179.5C 237.667,179.167 237.333,178.833 237,178.5C 236.717,181.742 235.883,182.076 234.5,179.5C 233.378,180.63 232.044,181.297 230.5,181.5C 228.588,179.343 226.921,177.009 225.5,174.5C 223.611,173.678 221.611,172.845 219.5,172C 220.167,171.333 220.833,170.667 221.5,170C 217.783,170.878 214.45,169.878 211.5,167C 213.488,166.82 215.488,166.986 217.5,167.5C 216.771,165.007 215.937,162.674 215,160.5C 216.113,161.711 217.28,161.711 218.5,160.5C 220.136,163.493 222.469,164.493 225.5,163.5C 226.584,164.665 227.417,165.998 228,167.5C 229.414,166.587 230.914,166.587 232.5,167.5 Z"/></g>
<g><path style="opacity:1" fill="#000" d="M 91.5,161.5 C 93.5969,165.53 95.5969,169.697 97.5,174C 95.3037,177.677 92.9703,181.177 90.5,184.5C 90.33,183.178 90.6634,182.011 91.5,181C 90.9558,180.283 90.2891,179.783 89.5,179.5C 89.1898,177.856 88.1898,176.856 86.5,176.5C 84.3754,173.912 83.0421,170.912 82.5,167.5C 84.3612,165.216 86.6945,163.382 89.5,162C 87.3426,160.915 87.1759,159.749 89,158.5C 89.3768,159.942 90.2101,160.942 91.5,161.5 Z"/></g>
<g><path style="opacity:1" fill="#000" d="M 138.5,162.5 C 144.84,163.349 146.507,166.516 143.5,172C 138.876,174.511 135.542,173.344 133.5,168.5C 134.259,165.595 135.926,163.595 138.5,162.5 Z"/></g>
<g><path style="opacity:1" fill="#000" d="M 257.5,164.5 C 264.297,165.107 265.964,168.274 262.5,174C 256.507,175.668 254.007,173.502 255,167.5C 255.698,166.309 256.531,165.309 257.5,164.5 Z"/></g>
<g><path style="opacity:1" fill="#000" d="M 149.5,153.5 C 152.187,153.336 154.854,153.503 157.5,154C 156.044,154.423 155.544,155.256 156,156.5C 157.016,157.634 157.683,157.301 158,155.5C 158.74,157.319 159.907,158.652 161.5,159.5C 161.5,159.833 161.5,160.167 161.5,160.5C 162.099,167.391 161.265,174.058 159,180.5C 158.346,179.304 157.846,179.304 157.5,180.5C 157.833,181.167 158.167,181.833 158.5,182.5C 156.886,185.284 154.552,187.118 151.5,188C 151.833,188.333 152.167,188.667 152.5,189C 151.552,189.483 150.552,189.649 149.5,189.5C 150.216,185.315 150.549,181.315 150.5,177.5C 152.002,173.658 152.668,169.658 152.5,165.5C 153.361,162.703 153.695,160.037 153.5,157.5C 151.577,156.692 149.577,156.192 147.5,156C 148.756,155.583 149.423,154.75 149.5,153.5 Z"/></g>
<g><path style="opacity:1" fill="#000" d="M 232.5,167.5 C 230.914,166.587 229.414,166.587 228,167.5C 227.417,165.998 226.584,164.665 225.5,163.5C 222.469,164.493 220.136,163.493 218.5,160.5C 217.28,161.711 216.113,161.711 215,160.5C 215.937,162.674 216.771,165.007 217.5,167.5C 215.488,166.986 213.488,166.82 211.5,167C 214.45,169.878 217.783,170.878 221.5,170C 220.833,170.667 220.167,171.333 219.5,172C 221.611,172.845 223.611,173.678 225.5,174.5C 218.583,181.464 210.25,186.131 200.5,188.5C 198.599,188.567 196.766,188.233 195,187.5C 193.743,187.15 193.409,186.483 194,185.5C 197.661,184.035 200.494,182.202 202.5,180C 204.134,179.506 205.801,179.34 207.5,179.5C 207.261,177.533 207.594,175.699 208.5,174C 207.906,173.536 207.239,173.369 206.5,173.5C 202.958,173.813 199.625,173.479 196.5,172.5C 198.527,172.662 200.527,172.495 202.5,172C 204.301,171.683 204.634,171.016 203.5,170C 205.774,169.53 207.774,168.53 209.5,167C 206.833,166.333 206.833,165.667 209.5,165C 206.421,164.027 203.421,163.194 200.5,162.5C 203.518,162.665 206.518,162.498 209.5,162C 210.457,159.372 212.291,157.872 215,157.5C 221.732,159.444 227.565,162.777 232.5,167.5 Z"/></g>
<g><path style="opacity:1" fill="#000" d="M 125.5,171.5 C 132.519,171.723 134.519,174.89 131.5,181C 122.192,182.183 120.192,179.016 125.5,171.5 Z"/></g>
<g><path style="opacity:1" fill="#000" d="M 25.5,157.5 C 24.4625,160.293 24.4625,162.793 25.5,165C 27.2475,165.352 28.9142,165.852 30.5,166.5C 27.8046,169.526 25.1379,172.526 22.5,175.5C 19.9096,177.98 18.0763,177.313 17,173.5C 16.3333,174.833 15.6667,174.833 15,173.5C 14.6466,174.672 14.8132,175.838 15.5,177C 14.6831,178.49 13.8498,179.99 13,181.5C 12.2588,182.641 11.4255,182.641 10.5,181.5C 9.85892,182.993 8.85892,183.993 7.5,184.5C 11.1544,173.862 17.1544,164.862 25.5,157.5 Z"/></g>
<g><path style="opacity:1" fill="#000" d="M 62.5,173.5 C 64.6869,174.758 67.0202,175.758 69.5,176.5C 69.5,176.833 69.5,177.167 69.5,177.5C 68.2617,177.81 68.2617,178.31 69.5,179C 68.552,179.483 67.552,179.649 66.5,179.5C 66.6079,181.783 67.4412,183.783 69,185.5C 71.3322,185.436 73.8322,185.269 76.5,185C 75.3279,185.419 74.3279,186.085 73.5,187C 75.0762,187.44 76.4096,188.273 77.5,189.5C 78.8924,188.395 80.059,187.061 81,185.5C 81.7504,186.126 82.5838,186.626 83.5,187C 82.6919,187.308 82.0253,187.808 81.5,188.5C 82.7914,189.527 82.7914,190.527 81.5,191.5C 72.8215,191.159 64.8215,188.826 57.5,184.5C 56.4262,182.716 54.7596,181.549 52.5,181C 53.8333,179.667 53.8333,178.333 52.5,177C 54.9316,175.913 54.5983,175.413 51.5,175.5C 51.2864,171.743 52.2864,171.076 54.5,173.5C 55.8159,170.972 56.9826,170.972 58,173.5C 59.4139,172.587 60.9139,172.587 62.5,173.5 Z"/></g>
<g><path style="opacity:0.467" fill="#000" d="M 69.5,177.5 C 69.5,177.167 69.5,176.833 69.5,176.5C 75.3942,178.223 81.3942,179.056 87.5,179C 86.7476,178.329 86.4142,177.496 86.5,176.5C 88.1898,176.856 89.1898,177.856 89.5,179.5C 82.8199,180.62 76.1532,179.953 69.5,177.5 Z"/></g>
<g><path style="opacity:0.373" fill="#000" d="M 166.5,179.5 C 174.997,178.714 183.663,178.714 192.5,179.5C 184.003,180.286 175.337,180.286 166.5,179.5 Z"/></g>
<g><path style="opacity:1" fill="#000" d="M 206.5,173.5 C 207.239,173.369 207.906,173.536 208.5,174C 207.594,175.699 207.261,177.533 207.5,179.5C 205.801,179.34 204.134,179.506 202.5,180C 200.494,182.202 197.661,184.035 194,185.5C 193.409,186.483 193.743,187.15 195,187.5C 196.766,188.233 198.599,188.567 200.5,188.5C 193.829,190.871 186.829,191.871 179.5,191.5C 180.263,190.732 181.263,190.232 182.5,190C 180.432,189.313 178.432,189.48 176.5,190.5C 175.167,189.167 175.167,187.833 176.5,186.5C 177.748,185.96 178.915,185.293 180,184.5C 182.946,188.153 186.613,189.486 191,188.5C 191.273,186.899 191.773,185.399 192.5,184C 183.618,181.979 174.618,181.145 165.5,181.5C 165.328,180.508 165.662,179.842 166.5,179.5C 175.337,180.286 184.003,180.286 192.5,179.5C 196.079,178.475 199.746,177.309 203.5,176C 204.942,175.623 205.942,174.79 206.5,173.5 Z"/></g>
<g><path style="opacity:1" fill="#000" d="M 246.5,175.5 C 255.121,174.932 257.121,178.099 252.5,185C 245.305,185.11 243.305,181.943 246.5,175.5 Z"/></g>
<g><path style="opacity:1" fill="#000" d="M 69.5,177.5 C 76.1532,179.953 82.8199,180.62 89.5,179.5C 90.2891,179.783 90.9558,180.283 91.5,181C 90.6634,182.011 90.33,183.178 90.5,184.5C 90.8927,191.454 87.8927,193.787 81.5,191.5C 82.7914,190.527 82.7914,189.527 81.5,188.5C 82.0253,187.808 82.6919,187.308 83.5,187C 82.5838,186.626 81.7504,186.126 81,185.5C 80.059,187.061 78.8924,188.395 77.5,189.5C 76.4096,188.273 75.0762,187.44 73.5,187C 74.3279,186.085 75.3279,185.419 76.5,185C 73.8322,185.269 71.3322,185.436 69,185.5C 67.4412,183.783 66.6079,181.783 66.5,179.5C 67.552,179.649 68.552,179.483 69.5,179C 68.2617,178.31 68.2617,177.81 69.5,177.5 Z"/></g>
<g><path style="opacity:1" fill="#000" d="M 283.5,174.5 C 285.905,178.756 287.405,183.423 288,188.5C 288.667,194.167 288.667,199.833 288,205.5C 287.768,206.737 287.268,207.737 286.5,208.5C 286.5,208.167 286.5,207.833 286.5,207.5C 288.386,198.609 287.386,190.109 283.5,182C 284.136,179.606 284.136,177.106 283.5,174.5 Z"/></g>
<g><path style="opacity:1" fill="#000" d="M 137.5,178.5 C 143,177.831 145.167,180.165 144,185.5C 141.622,188.93 138.955,189.263 136,186.5C 135.133,183.479 135.633,180.812 137.5,178.5 Z"/></g>
<g><path style="opacity:1" fill="#000" d="M 262.5,178.5 C 271.341,181.219 271.674,184.886 263.5,189.5C 257.2,186.37 256.866,182.704 262.5,178.5 Z"/></g>
<g><path style="opacity:1" fill="#000" d="M 22.5,175.5 C 17.1772,185.127 14.8439,195.461 15.5,206.5C 14.8826,206.389 14.3826,206.056 14,205.5C 13.8184,202.774 13.3184,200.107 12.5,197.5C 11.2175,200.372 11.2175,203.205 12.5,206C 12,206.5 11.5,207 11,207.5C 9.78441,205.038 9.11774,202.371 9,199.5C 8.66667,199.833 8.33333,200.167 8,200.5C 7.33333,198.167 7.33333,195.833 8,193.5C 8.69883,198.281 9.19883,198.447 9.5,194C 8.44911,191.135 8.28244,188.302 9,185.5C 5.9714,191.771 4.80473,198.438 5.5,205.5C 3.91936,198.407 4.58603,191.407 7.5,184.5C 8.85892,183.993 9.85892,182.993 10.5,181.5C 11.4255,182.641 12.2588,182.641 13,181.5C 13.8498,179.99 14.6831,178.49 15.5,177C 14.8132,175.838 14.6466,174.672 15,173.5C 15.6667,174.833 16.3333,174.833 17,173.5C 18.0763,177.313 19.9096,177.98 22.5,175.5 Z"/></g>
<g><path style="opacity:1" fill="#000" d="M 107.5,167.5 C 106.164,171.103 106.998,171.436 110,168.5C 110.615,170.116 111.615,171.449 113,172.5C 112.923,171.262 113.089,170.262 113.5,169.5C 114.642,170.826 115.976,171.826 117.5,172.5C 112.354,177.814 108.188,183.814 105,190.5C 102.91,196.914 103.076,203.248 105.5,209.5C 102.15,208.305 101.15,206.138 102.5,203C 101.859,198.548 101.192,194.048 100.5,189.5C 98.6442,189.792 96.9776,189.792 95.5,189.5C 95.3601,187.876 96.0267,186.71 97.5,186C 96.7476,185.329 96.4142,184.496 96.5,183.5C 98.7116,177.048 102.378,171.714 107.5,167.5 Z"/></g>
<g><path style="opacity:1" fill="#000" d="M 34.5,165.5 C 35.1667,165.5 35.8333,165.5 36.5,165.5C 36.4614,166.756 36.9614,167.756 38,168.5C 39.0875,166.068 39.5875,166.402 39.5,169.5C 40.675,169.281 41.675,169.614 42.5,170.5C 43.7154,172.215 44.7154,174.049 45.5,176C 44.5819,178.086 43.9153,180.253 43.5,182.5C 46.3463,181.905 49.3463,181.905 52.5,182.5C 50.2175,185.404 48.7175,188.738 48,192.5C 47.5008,197.155 47.3342,201.821 47.5,206.5C 46.6753,202.353 46.1753,198.019 46,193.5C 45.3333,195.5 44.6667,197.5 44,199.5C 42.3883,195.942 41.055,192.275 40,188.5C 39.2935,190.081 38.4601,191.581 37.5,193C 33.8333,193.333 30.1667,193.667 26.5,194C 27.3366,195.011 27.67,196.178 27.5,197.5C 26.1266,197.343 24.7932,197.51 23.5,198C 28.3514,198.174 33.0181,198.674 37.5,199.5C 32.4889,199.666 27.4889,199.499 22.5,199C 21.5939,197.301 21.2606,195.467 21.5,193.5C 24.7722,191.44 28.2722,191.107 32,192.5C 34.3123,192.045 36.3123,191.045 38,189.5C 39.0032,184.99 40.5032,180.657 42.5,176.5C 39.8086,172.815 37.1419,169.148 34.5,165.5 Z"/></g>
<g><path style="opacity:1" fill="#000" d="M 114.5,180.5 C 118.703,179.702 121.37,181.369 122.5,185.5C 120.786,190.675 117.786,191.675 113.5,188.5C 112.025,185.557 112.358,182.891 114.5,180.5 Z"/></g>
<g><path style="opacity:1" fill="#000" d="M 165.5,181.5 C 174.618,181.145 183.618,181.979 192.5,184C 191.773,185.399 191.273,186.899 191,188.5C 186.613,189.486 182.946,188.153 180,184.5C 178.915,185.293 177.748,185.96 176.5,186.5C 175.167,187.833 175.167,189.167 176.5,190.5C 178.432,189.48 180.432,189.313 182.5,190C 181.263,190.232 180.263,190.732 179.5,191.5C 174.378,192.191 169.211,192.858 164,193.5C 161.456,193.179 160.456,191.845 161,189.5C 162.795,186.901 164.295,184.234 165.5,181.5 Z"/></g>
<g><path style="opacity:1" fill="#000" d="M 133.5,191.5 C 132.222,192.791 131.555,194.791 131.5,197.5C 129.712,197.785 128.045,197.452 126.5,196.5C 127.629,194.471 127.129,194.137 125,195.5C 124.51,194.207 124.343,192.873 124.5,191.5C 126.407,188.668 129.073,187.834 132.5,189C 133.252,189.671 133.586,190.504 133.5,191.5 Z"/></g>
<g><path style="opacity:1" fill="#000" d="M 47.5,206.5 C 47.5,208.833 47.5,211.167 47.5,213.5C 47.5,213.833 47.5,214.167 47.5,214.5C 46.7321,215.263 46.2321,216.263 46,217.5C 43.9734,217.014 41.8067,217.014 39.5,217.5C 38.3816,214.822 38.3816,212.155 39.5,209.5C 39.2528,208.287 38.5862,207.62 37.5,207.5C 37.5,204.833 37.5,202.167 37.5,199.5C 33.0181,198.674 28.3514,198.174 23.5,198C 24.7932,197.51 26.1266,197.343 27.5,197.5C 27.67,196.178 27.3366,195.011 26.5,194C 30.1667,193.667 33.8333,193.333 37.5,193C 38.4601,191.581 39.2935,190.081 40,188.5C 41.055,192.275 42.3883,195.942 44,199.5C 44.6667,197.5 45.3333,195.5 46,193.5C 46.1753,198.019 46.6753,202.353 47.5,206.5 Z"/></g>
<g><path style="opacity:1" fill="#000" d="M 267.5,190.5 C 275.877,190.274 277.544,193.441 272.5,200C 264.845,199.854 263.178,196.688 267.5,190.5 Z"/></g>
<g><path style="opacity:1" fill="#000" d="M 237.5,173.5 C 246.419,185.273 250.085,198.606 248.5,213.5C 248.5,213.833 248.5,214.167 248.5,214.5C 247.515,210.366 247.182,206.032 247.5,201.5C 244.833,200.167 242.167,200.167 239.5,201.5C 239.5,207.167 239.5,212.833 239.5,218.5C 230.28,217.934 221.113,217.267 212,216.5C 211.667,217.167 211.333,217.833 211,218.5C 205.707,217.96 199.874,217.627 193.5,217.5C 190.615,217.806 187.948,217.473 185.5,216.5C 190.363,216.819 195.03,216.486 199.5,215.5C 212.5,215.5 225.5,215.5 238.5,215.5C 238.666,209.158 238.5,202.825 238,196.5C 237.678,193.334 236.511,190.667 234.5,188.5C 232.929,186.365 231.596,184.032 230.5,181.5C 232.044,181.297 233.378,180.63 234.5,179.5C 235.883,182.076 236.717,181.742 237,178.5C 237.333,178.833 237.667,179.167 238,179.5C 238.49,177.455 238.323,175.455 237.5,173.5 Z"/></g>
<g><path style="opacity:1" fill="#000" d="M 161.5,160.5 C 163.082,167.839 162.582,175.172 160,182.5C 155.142,192.502 148.975,201.502 141.5,209.5C 138.691,205.529 138.025,201.196 139.5,196.5C 143.606,190.4 147.273,184.067 150.5,177.5C 150.549,181.315 150.216,185.315 149.5,189.5C 150.552,189.649 151.552,189.483 152.5,189C 152.167,188.667 151.833,188.333 151.5,188C 154.552,187.118 156.886,185.284 158.5,182.5C 158.167,181.833 157.833,181.167 157.5,180.5C 157.846,179.304 158.346,179.304 159,180.5C 161.265,174.058 162.099,167.391 161.5,160.5 Z"/></g>
<g><path style="opacity:0.659" fill="#000" d="M 124.5,191.5 C 124.343,192.873 124.51,194.207 125,195.5C 127.129,194.137 127.629,194.471 126.5,196.5C 128.045,197.452 129.712,197.785 131.5,197.5C 131.555,194.791 132.222,192.791 133.5,191.5C 134.855,195.361 133.355,197.695 129,198.5C 123.905,198.265 122.405,195.932 124.5,191.5 Z"/></g>
<g><path style="opacity:0.008" fill="#000" d="M 249.5,197.5 C 250.573,198.251 250.74,199.251 250,200.5C 249.517,199.552 249.351,198.552 249.5,197.5 Z"/></g>
<g><path style="opacity:0.271" fill="#000" d="M 21.5,193.5 C 21.2606,195.467 21.5939,197.301 22.5,199C 27.4889,199.499 32.4889,199.666 37.5,199.5C 37.5,202.167 37.5,204.833 37.5,207.5C 37.5,209.833 37.5,212.167 37.5,214.5C 31.8236,214.666 26.1569,214.499 20.5,214C 19.2625,213.768 18.2625,213.268 17.5,212.5C 23.7974,213.32 30.1308,213.653 36.5,213.5C 36.5,209.167 36.5,204.833 36.5,200.5C 31.4889,200.666 26.4889,200.499 21.5,200C 18.8661,197.707 18.8661,195.54 21.5,193.5 Z"/></g>
<g><path style="opacity:0.792" fill="#000" d="M 96.5,183.5 C 96.4142,184.496 96.7476,185.329 97.5,186C 96.0267,186.71 95.3601,187.876 95.5,189.5C 94.7321,190.263 94.2321,191.263 94,192.5C 93.5007,197.489 93.3341,202.489 93.5,207.5C 90.834,199.133 91.834,191.133 96.5,183.5 Z"/></g>
<g><path style="opacity:1" fill="#000" d="M 110.5,194.5 C 117.641,194.62 119.308,197.787 115.5,204C 107.017,204.619 105.35,201.452 110.5,194.5 Z"/></g>
<g><path style="opacity:0.976" fill="#000" d="M 257.5,192.5 C 262.151,193.232 263.651,195.899 262,200.5C 257.641,203.494 254.141,202.66 251.5,198C 252.759,195.236 254.759,193.403 257.5,192.5 Z"/></g>
<g><path style="opacity:1" fill="#000" d="M 248.5,214.5 C 256.534,214.698 264.534,214.365 272.5,213.5C 271.884,217.006 270.217,217.839 267.5,216C 265.167,215.333 262.833,215.333 260.5,216C 259.051,217.117 257.384,217.784 255.5,218C 254.167,218.667 254.167,219.333 255.5,220C 248.833,220.667 248.833,221.333 255.5,222C 256.167,222.667 256.833,223.333 257.5,224C 265.159,224.5 272.826,224.666 280.5,224.5C 236.505,225.833 192.172,226.5 147.5,226.5C 102.999,226.5 58.6654,226.167 14.5,225.5C 103.506,225.854 175.172,225.52 229.5,224.5C 229.5,224.167 229.5,223.833 229.5,223.5C 232.008,221.763 235.008,220.93 238.5,221C 239.999,220.162 240.332,219.329 239.5,218.5C 239.5,212.833 239.5,207.167 239.5,201.5C 242.167,200.167 244.833,200.167 247.5,201.5C 247.182,206.032 247.515,210.366 248.5,214.5 Z"/></g>
<g><path style="opacity:1" fill="#000" d="M 182.5,201.5 C 182.173,206.214 182.507,210.88 183.5,215.5C 184.183,215.863 184.85,216.196 185.5,216.5C 187.948,217.473 190.615,217.806 193.5,217.5C 190.269,218.782 186.936,218.782 183.5,217.5C 181.5,217.5 179.5,217.5 177.5,217.5C 177.827,212.456 177.494,207.456 176.5,202.5C 174.717,206.403 173.55,206.07 173,201.5C 172.505,203.473 172.338,205.473 172.5,207.5C 171.761,207.631 171.094,207.464 170.5,207C 171.456,203.606 171.789,200.106 171.5,196.5C 174.852,195.447 178.185,195.447 181.5,196.5C 182.309,198.071 182.643,199.738 182.5,201.5 Z"/></g>
<g><path style="opacity:1" fill="#000" d="M 274.5,159.5 C 278.767,163.695 281.767,168.695 283.5,174.5C 284.136,177.106 284.136,179.606 283.5,182C 287.386,190.109 288.386,198.609 286.5,207.5C 285.238,204.929 283.905,204.929 282.5,207.5C 281.319,206.485 280.319,205.319 279.5,204C 278.913,199.352 278.246,194.852 277.5,190.5C 275.452,184.068 273.118,177.735 270.5,171.5C 269.829,170.153 269.829,168.986 270.5,168C 269.328,167.581 268.328,166.915 267.5,166C 268.833,165.333 268.833,164.667 267.5,164C 268.167,163.667 268.833,163.333 269.5,163C 268.257,161.846 267.257,160.512 266.5,159C 268.076,158.56 269.41,157.727 270.5,156.5C 271.852,157.524 273.185,158.524 274.5,159.5 Z"/></g>
<g><path style="opacity:1" fill="#000" d="M 105.5,209.5 C 105.511,211.017 106.177,212.184 107.5,213C 104.549,213.096 101.882,213.929 99.5,215.5C 98.3044,215.154 98.3044,214.654 99.5,214C 98.255,213.209 96.9217,212.709 95.5,212.5C 94.0582,211.18 93.3915,209.514 93.5,207.5C 93.3341,202.489 93.5007,197.489 94,192.5C 94.2321,191.263 94.7321,190.263 95.5,189.5C 96.9776,189.792 98.6442,189.792 100.5,189.5C 101.192,194.048 101.859,198.548 102.5,203C 101.15,206.138 102.15,208.305 105.5,209.5 Z"/></g>
<g><path style="opacity:0.463" fill="#000" d="M 234.5,188.5 C 236.511,190.667 237.678,193.334 238,196.5C 238.5,202.825 238.666,209.158 238.5,215.5C 225.5,215.5 212.5,215.5 199.5,215.5C 199.167,215.5 198.833,215.5 198.5,215.5C 211.323,214.505 224.323,214.171 237.5,214.5C 238.072,205.617 237.072,196.951 234.5,188.5 Z"/></g>
<g><path style="opacity:0.982" fill="#000" d="M 277.5,190.5 C 278.246,194.852 278.913,199.352 279.5,204C 280.319,205.319 281.319,206.485 282.5,207.5C 283.905,204.929 285.238,204.929 286.5,207.5C 286.5,207.833 286.5,208.167 286.5,208.5C 286.414,210.677 285.747,212.677 284.5,214.5C 285.025,215.192 285.692,215.692 286.5,216C 283.629,218.249 281.629,221.082 280.5,224.5C 272.826,224.666 265.159,224.5 257.5,224C 256.833,223.333 256.167,222.667 255.5,222C 248.833,221.333 248.833,220.667 255.5,220C 254.167,219.333 254.167,218.667 255.5,218C 257.384,217.784 259.051,217.117 260.5,216C 262.833,215.333 265.167,215.333 267.5,216C 270.217,217.839 271.884,217.006 272.5,213.5C 272.5,213.167 272.5,212.833 272.5,212.5C 276.995,205.909 278.661,198.575 277.5,190.5 Z"/></g>
<g><path style="opacity:1" fill="#000" d="M 15.5,206.5 C 16.3627,208.421 17.0293,210.421 17.5,212.5C 18.2625,213.268 19.2625,213.768 20.5,214C 26.1569,214.499 31.8236,214.666 37.5,214.5C 37.4208,215.93 37.7542,217.264 38.5,218.5C 36.6531,219.83 35.1531,219.497 34,217.5C 30.832,219.205 27.332,220.038 23.5,220C 22.4495,221.385 21.1161,222.385 19.5,223C 35.7764,224.44 52.1097,224.94 68.5,224.5C 68.8333,224.5 69.1667,224.5 69.5,224.5C 82.5,224.5 95.5,224.5 108.5,224.5C 114.833,224.5 121.167,224.5 127.5,224.5C 128.5,224.5 129.5,224.5 130.5,224.5C 163.5,224.5 196.5,224.5 229.5,224.5C 175.172,225.52 103.506,225.854 14.5,225.5C 12.9866,221.479 10.4866,218.145 7,215.5C 5.80108,212.274 5.30108,208.941 5.5,205.5C 4.80473,198.438 5.9714,191.771 9,185.5C 8.28244,188.302 8.44911,191.135 9.5,194C 9.19883,198.447 8.69883,198.281 8,193.5C 7.33333,195.833 7.33333,198.167 8,200.5C 8.33333,200.167 8.66667,199.833 9,199.5C 9.11774,202.371 9.78441,205.038 11,207.5C 11.5,207 12,206.5 12.5,206C 11.2175,203.205 11.2175,200.372 12.5,197.5C 13.3184,200.107 13.8184,202.774 14,205.5C 14.3826,206.056 14.8826,206.389 15.5,206.5 Z"/></g>
<g><path style="opacity:1" fill="#000" d="M 129.5,208.5 C 128.158,211.906 126.825,214.906 125.5,217.5C 127.078,218.298 128.744,218.798 130.5,219C 127.833,219.667 127.833,220.333 130.5,221C 129.552,221.483 128.552,221.649 127.5,221.5C 127.5,222.5 127.5,223.5 127.5,224.5C 121.167,224.5 114.833,224.5 108.5,224.5C 109.684,223.312 109.684,222.145 108.5,221C 110.167,220.667 111.833,220.333 113.5,220C 113.043,219.586 112.709,219.086 112.5,218.5C 115.583,218.037 118.249,216.871 120.5,215C 116.264,214.665 112.264,213.832 108.5,212.5C 114.509,212.666 120.509,212.499 126.5,212C 127.163,210.482 128.163,209.315 129.5,208.5 Z"/></g>
<g><path style="opacity:0.792" fill="#000" d="M 272.5,212.5 C 272.5,212.833 272.5,213.167 272.5,213.5C 264.534,214.365 256.534,214.698 248.5,214.5C 248.5,214.167 248.5,213.833 248.5,213.5C 256.525,213.61 264.525,213.276 272.5,212.5 Z"/></g>
<g><path style="opacity:1" fill="#000" d="M 37.5,207.5 C 38.5862,207.62 39.2528,208.287 39.5,209.5C 38.3816,212.155 38.3816,214.822 39.5,217.5C 41.8067,217.014 43.9734,217.014 46,217.5C 46.2321,216.263 46.7321,215.263 47.5,214.5C 49.2646,215.461 51.2646,215.795 53.5,215.5C 60.1667,216.167 66.8333,216.833 73.5,217.5C 69.1623,218.632 64.6623,218.632 60,217.5C 57.7473,217.631 55.5806,218.131 53.5,219C 56.1667,219.667 56.1667,220.333 53.5,221C 54.3081,221.308 54.9747,221.808 55.5,222.5C 59.9822,223.167 64.3155,223.834 68.5,224.5C 52.1097,224.94 35.7764,224.44 19.5,223C 21.1161,222.385 22.4495,221.385 23.5,220C 27.332,220.038 30.832,219.205 34,217.5C 35.1531,219.497 36.6531,219.83 38.5,218.5C 37.7542,217.264 37.4208,215.93 37.5,214.5C 37.5,212.167 37.5,209.833 37.5,207.5 Z"/></g>
<g><path style="opacity:0.067" fill="#000" d="M 47.5,213.5 C 63.756,214.484 80.0893,214.818 96.5,214.5C 82.9125,215.499 68.5792,215.832 53.5,215.5C 51.2646,215.795 49.2646,215.461 47.5,214.5C 47.5,214.167 47.5,213.833 47.5,213.5 Z"/></g>
<g><path style="opacity:1" fill="#000" d="M 183.5,217.5 C 184.234,220.776 186.067,221.442 189,219.5C 196.257,222.757 203.757,223.424 211.5,221.5C 217.637,221.382 223.637,222.048 229.5,223.5C 229.5,223.833 229.5,224.167 229.5,224.5C 196.5,224.5 163.5,224.5 130.5,224.5C 134.634,223.515 138.968,223.182 143.5,223.5C 143.523,220.543 144.523,218.043 146.5,216C 145.833,215.667 145.167,215.333 144.5,215C 154.22,215.145 163.554,214.311 172.5,212.5C 172.5,210.833 172.5,209.167 172.5,207.5C 172.338,205.473 172.505,203.473 173,201.5C 173.55,206.07 174.717,206.403 176.5,202.5C 177.494,207.456 177.827,212.456 177.5,217.5C 179.5,217.5 181.5,217.5 183.5,217.5 Z"/></g>
<g><path style="opacity:0.455" fill="#000" d="M 182.5,201.5 C 183.166,205.684 183.833,210.018 184.5,214.5C 189.1,215.443 193.767,215.777 198.5,215.5C 198.833,215.5 199.167,215.5 199.5,215.5C 195.03,216.486 190.363,216.819 185.5,216.5C 184.85,216.196 184.183,215.863 183.5,215.5C 182.507,210.88 182.173,206.214 182.5,201.5 Z"/></g>
<g><path style="opacity:1" fill="#000" d="M 239.5,218.5 C 240.332,219.329 239.999,220.162 238.5,221C 235.008,220.93 232.008,221.763 229.5,223.5C 223.637,222.048 217.637,221.382 211.5,221.5C 203.757,223.424 196.257,222.757 189,219.5C 186.067,221.442 184.234,220.776 183.5,217.5C 186.936,218.782 190.269,218.782 193.5,217.5C 199.874,217.627 205.707,217.96 211,218.5C 211.333,217.833 211.667,217.167 212,216.5C 221.113,217.267 230.28,217.934 239.5,218.5 Z"/></g>
<g><path style="opacity:1" fill="#000" d="M 69.5,224.5 C 69.1667,224.5 68.8333,224.5 68.5,224.5C 64.3155,223.834 59.9822,223.167 55.5,222.5C 54.9747,221.808 54.3081,221.308 53.5,221C 56.1667,220.333 56.1667,219.667 53.5,219C 55.5806,218.131 57.7473,217.631 60,217.5C 64.6623,218.632 69.1623,218.632 73.5,217.5C 81.1573,216.549 88.8239,216.716 96.5,218C 95.4651,221.611 93.7984,222.111 91.5,219.5C 90.6919,219.808 90.0253,220.308 89.5,221C 82.5617,221.572 75.895,222.738 69.5,224.5 Z"/></g>
<g><path style="opacity:1" fill="#000" d="M 105.5,209.5 C 106.833,210.167 107.833,211.167 108.5,212.5C 112.264,213.832 116.264,214.665 120.5,215C 118.249,216.871 115.583,218.037 112.5,218.5C 112.709,219.086 113.043,219.586 113.5,220C 111.833,220.333 110.167,220.667 108.5,221C 109.684,222.145 109.684,223.312 108.5,224.5C 95.5,224.5 82.5,224.5 69.5,224.5C 75.895,222.738 82.5617,221.572 89.5,221C 90.0253,220.308 90.6919,219.808 91.5,219.5C 93.7984,222.111 95.4651,221.611 96.5,218C 88.8239,216.716 81.1573,216.549 73.5,217.5C 66.8333,216.833 60.1667,216.167 53.5,215.5C 68.5792,215.832 82.9125,215.499 96.5,214.5C 96.1667,213.833 95.8333,213.167 95.5,212.5C 96.9217,212.709 98.255,213.209 99.5,214C 98.3044,214.654 98.3044,215.154 99.5,215.5C 101.882,213.929 104.549,213.096 107.5,213C 106.177,212.184 105.511,211.017 105.5,209.5 Z"/></g>
<g><path style="opacity:1" fill="#000" d="M 139.5,196.5 C 138.025,201.196 138.691,205.529 141.5,209.5C 138.565,215.398 139.899,216.564 145.5,213C 147.167,212.833 148.833,212.667 150.5,212.5C 157.897,213.675 165.23,213.675 172.5,212.5C 163.554,214.311 154.22,215.145 144.5,215C 145.167,215.333 145.833,215.667 146.5,216C 144.523,218.043 143.523,220.543 143.5,223.5C 138.968,223.182 134.634,223.515 130.5,224.5C 129.5,224.5 128.5,224.5 127.5,224.5C 127.5,223.5 127.5,222.5 127.5,221.5C 128.552,221.649 129.552,221.483 130.5,221C 127.833,220.333 127.833,219.667 130.5,219C 128.744,218.798 127.078,218.298 125.5,217.5C 126.825,214.906 128.158,211.906 129.5,208.5C 132.463,204.202 135.797,200.202 139.5,196.5 Z"/></g>
<g><path style="opacity:0.006" fill="#000" d="M 217.5,237.5 C 212.927,236.583 208.427,236.249 204,236.5C 200.513,239.776 196.68,240.276 192.5,238C 200.796,230.848 209.13,230.681 217.5,237.5 Z"/></g>
<g><path style="opacity:0.006" fill="#000" d="M 62.5,237.5 C 65.5738,234.408 69.4071,232.742 74,232.5C 81.1005,232.585 86.1005,235.585 89,241.5C 83.451,238.323 77.451,236.656 71,236.5C 68.4666,236.951 65.6332,237.284 62.5,237.5 Z"/></g>
<g><path style="opacity:0.004" fill="#000" d="M 62.5,237.5 C 61.8333,238.167 61.8333,238.167 62.5,237.5 Z"/></g>
<g><path style="opacity:0.007" fill="#000" d="M 217.5,237.5 C 222.277,240.238 226.277,243.905 229.5,248.5C 238.225,249.541 246.892,250.707 255.5,252C 253.634,252.985 251.634,253.485 249.5,253.5C 243.465,253.66 237.465,253.493 231.5,253C 228.667,250.833 225.833,248.667 223,246.5C 221.657,243.138 219.824,240.138 217.5,237.5 Z"/></g>
</svg>
