<svg width="24" height="23" viewBox="0 0 24 23" fill="none" xmlns="http://www.w3.org/2000/svg">
<g clip-path="url(#clip0_103_1795)">
<path fillRule="evenodd" clipRule="evenodd" d="M2.92636 0.502277C2.60304 0.190006 2.17 0.0172161 1.72052 0.0211219C1.27104 0.0250278 0.84108 0.205317 0.523238 0.52316C0.205395 0.841002 0.0251055 1.27097 0.0211996 1.72045C0.0172938 2.16993 0.190084 2.60296 0.502355 2.92628L9.57607 12L0.502355 21.0737C0.338623 21.2318 0.208025 21.421 0.118181 21.6302C0.0283373 21.8393 -0.0189534 22.0643 -0.0209314 22.2919C-0.0229093 22.5195 0.020465 22.7452 0.106661 22.9559C0.192857 23.1666 0.320148 23.358 0.481107 23.519C0.642066 23.6799 0.833469 23.8072 1.04415 23.8934C1.25483 23.9796 1.48056 24.023 1.70819 24.021C1.93581 24.019 2.16076 23.9717 2.36991 23.8819C2.57906 23.792 2.76822 23.6614 2.92636 23.4977L12.0001 14.424L21.0738 23.4977C21.3971 23.81 21.8301 23.9828 22.2796 23.9789C22.7291 23.975 23.1591 23.7947 23.4769 23.4768C23.7947 23.159 23.975 22.729 23.9789 22.2795C23.9828 21.8301 23.8101 21.397 23.4978 21.0737L14.4241 12L23.4978 2.92628C23.8101 2.60296 23.9828 2.16993 23.9789 1.72045C23.975 1.27097 23.7947 0.841002 23.4769 0.52316C23.1591 0.205317 22.7291 0.0250278 22.2796 0.0211219C21.8301 0.0172161 21.3971 0.190006 21.0738 0.502277L12.0001 9.57599L2.92636 0.502277Z" fill="#374151"/>
</g>
<defs>
<clipPath id="clip0_103_1795">
<rect width="24" height="24" fill="white"/>
</clipPath>
</defs>
</svg>
