<svg width="24" height="23" viewBox="0 0 24 23" fill="none" xmlns="http://www.w3.org/2000/svg">
<mask id="mask0_68_2534" style="mask-type:alpha" maskUnits="userSpaceOnUse" x="0" y="-1" width="24" height="24">
<rect y="-1" width="24" height="24" fill="#D9D9D9"/>
</mask>
<g mask="url(#mask0_68_2534)">
<path d="M10.75 22.25L9.35 20.825L11.175 19H7.825C7.60833 19.5833 7.24583 20.0625 6.7375 20.4375C6.22917 20.8125 5.65 21 5 21C4.16667 21 3.45833 20.7083 2.875 20.125C2.29167 19.5417 2 18.8333 2 18C2 17.35 2.1875 16.7708 2.5625 16.2625C2.9375 15.7542 3.41667 15.3917 4 15.175V6.825C3.41667 6.60833 2.9375 6.24583 2.5625 5.7375C2.1875 5.22917 2 4.65 2 4C2 3.16667 2.29167 2.45833 2.875 1.875C3.45833 1.29167 4.16667 1 5 1C5.65 1 6.22917 1.1875 6.7375 1.5625C7.24583 1.9375 7.60833 2.41667 7.825 3H11.175L9.35 1.175L10.75 -0.25L15 4L10.75 8.25L9.35 6.825L11.175 5H7.825C7.675 5.43333 7.44167 5.80833 7.125 6.125C6.80833 6.44167 6.43333 6.675 6 6.825V15.175C6.43333 15.325 6.80833 15.5583 7.125 15.875C7.44167 16.1917 7.675 16.5667 7.825 17H11.175L9.35 15.175L10.75 13.75L15 18L10.75 22.25ZM19 21C18.1667 21 17.4583 20.7083 16.875 20.125C16.2917 19.5417 16 18.8333 16 18C16 17.3333 16.1875 16.7458 16.5625 16.2375C16.9375 15.7292 17.4167 15.375 18 15.175V6.825C17.4167 6.625 16.9375 6.27083 16.5625 5.7625C16.1875 5.25417 16 4.66667 16 4C16 3.16667 16.2917 2.45833 16.875 1.875C17.4583 1.29167 18.1667 1 19 1C19.8333 1 20.5417 1.29167 21.125 1.875C21.7083 2.45833 22 3.16667 22 4C22 4.66667 21.8125 5.25417 21.4375 5.7625C21.0625 6.27083 20.5833 6.625 20 6.825V15.175C20.5833 15.3917 21.0625 15.7542 21.4375 16.2625C21.8125 16.7708 22 17.35 22 18C22 18.8333 21.7083 19.5417 21.125 20.125C20.5417 20.7083 19.8333 21 19 21ZM5 19C5.28333 19 5.52083 18.9042 5.7125 18.7125C5.90417 18.5208 6 18.2833 6 18C6 17.7167 5.90417 17.4792 5.7125 17.2875C5.52083 17.0958 5.28333 17 5 17C4.71667 17 4.47917 17.0958 4.2875 17.2875C4.09583 17.4792 4 17.7167 4 18C4 18.2833 4.09583 18.5208 4.2875 18.7125C4.47917 18.9042 4.71667 19 5 19ZM19 19C19.2833 19 19.5208 18.9042 19.7125 18.7125C19.9042 18.5208 20 18.2833 20 18C20 17.7167 19.9042 17.4792 19.7125 17.2875C19.5208 17.0958 19.2833 17 19 17C18.7167 17 18.4792 17.0958 18.2875 17.2875C18.0958 17.4792 18 17.7167 18 18C18 18.2833 18.0958 18.5208 18.2875 18.7125C18.4792 18.9042 18.7167 19 19 19ZM5 5C5.28333 5 5.52083 4.90417 5.7125 4.7125C5.90417 4.52083 6 4.28333 6 4C6 3.71667 5.90417 3.47917 5.7125 3.2875C5.52083 3.09583 5.28333 3 5 3C4.71667 3 4.47917 3.09583 4.2875 3.2875C4.09583 3.47917 4 3.71667 4 4C4 4.28333 4.09583 4.52083 4.2875 4.7125C4.47917 4.90417 4.71667 5 5 5ZM19 5C19.2833 5 19.5208 4.90417 19.7125 4.7125C19.9042 4.52083 20 4.28333 20 4C20 3.71667 19.9042 3.47917 19.7125 3.2875C19.5208 3.09583 19.2833 3 19 3C18.7167 3 18.4792 3.09583 18.2875 3.2875C18.0958 3.47917 18 3.71667 18 4C18 4.28333 18.0958 4.52083 18.2875 4.7125C18.4792 4.90417 18.7167 5 19 5Z" fill="#374151"/>
</g>
</svg>
