<svg width="24" height="23" viewBox="0 0 24 23" fill="none" xmlns="http://www.w3.org/2000/svg">
<rect opacity="0.01" x="24" y="23" width="24" height="24" transform="rotate(180 24 23)" fill="#374151"/>
<path d="M3.24005 6.29L11.7601 10.92C11.9101 11 12.0901 11 12.2401 10.92L20.7601 6.29C20.919 6.21151 21.0153 6.04531 21.0044 5.86837C20.9935 5.69144 20.8774 5.53835 20.7101 5.48L12.1901 2C12.0683 1.94999 11.9318 1.94999 11.8101 2L3.29005 5.48C3.12266 5.53835 3.00663 5.69144 2.99571 5.86837C2.98479 6.04531 3.08111 6.21151 3.24005 6.29Z" fill="#374151"/>
<path d="M20.7101 9.66L18.8801 8.88L12.2401 12.49C12.0901 12.57 11.9101 12.57 11.7601 12.49L5.1201 8.88L3.2901 9.66C3.13214 9.74292 3.0332 9.90661 3.0332 10.085C3.0332 10.2634 3.13214 10.4271 3.2901 10.51L11.8101 15.41C11.9574 15.5001 12.1428 15.5001 12.2901 15.41L20.8101 10.51C20.9605 10.4099 21.042 10.2338 21.0209 10.0543C20.9998 9.87487 20.8797 9.72247 20.7101 9.66Z" fill="#374151"/>
<path d="M20.7101 14.1L19.1501 13.42L12.2401 17.18C12.0901 17.26 11.9101 17.26 11.7601 17.18L4.85008 13.42L3.29008 14.1C3.12762 14.1843 3.02563 14.352 3.02563 14.535C3.02563 14.718 3.12762 14.8858 3.29008 14.97L11.8101 19.97C11.9601 20.05 12.1401 20.05 12.2901 19.97L20.8101 14.97C20.9651 14.8685 21.0495 14.6882 21.0284 14.5042C21.0072 14.3201 20.8841 14.1637 20.7101 14.1Z" fill="#374151"/>
</svg>
